<svg xmlns="http://www.w3.org/2000/svg" xmlns:xlink="http://www.w3.org/1999/xlink" viewBox="0 0 1579.39 388.06"><defs><style>.cls-1,.cls-18{fill:none;}.cls-2{clip-path:url(#clip-path);}.cls-3{fill:#6e8a95;}.cls-4{fill:#485d65;}.cls-5{fill:#77ee2d;}.cls-6{fill:#90b8cc;}.cls-7{clip-path:url(#clip-path-2);}.cls-8{isolation:isolate;}.cls-9{clip-path:url(#clip-path-3);}.cls-10{clip-path:url(#clip-path-4);}.cls-11{fill:#f90;}.cls-12{fill:#140388;}.cls-13{fill:#eccbb6;}.cls-14{fill:#a2a2a2;}.cls-15{fill:#575757;}.cls-16{fill:#fb9595;}.cls-17{fill:#d9a485;}.cls-18{stroke:#000;stroke-linecap:square;stroke-miterlimit:3;stroke-width:3px;}.cls-19{clip-path:url(#clip-path-5);}</style><clipPath id="clip-path" transform="translate(0 -23.32)"><rect class="cls-1" width="1579.39" height="411.37"/></clipPath><clipPath id="clip-path-2" transform="translate(0 -23.32)"><rect class="cls-1" x="874.91" y="192.62" width="68" height="54.47"/></clipPath><clipPath id="clip-path-3" transform="translate(0 -23.32)"><rect class="cls-1" x="418.2" y="352.39" width="304" height="42.95"/></clipPath><clipPath id="clip-path-4" transform="translate(0 -23.32)"><rect class="cls-1" x="1097.23" y="309.43" width="253" height="42.95"/></clipPath><clipPath id="clip-path-5" transform="translate(0 -23.32)"><rect class="cls-1" x="448.27" y="21.82" width="243" height="42.95"/></clipPath></defs><g id="Layer_2" data-name="Layer 2"><g id="Layer_1-2" data-name="Layer 1"><g class="cls-2"><g id="APItidtabellexempel"><path id="Path_30" data-name="Path 30" class="cls-3" d="M1410.36,94.21h162.87a6.16,6.16,0,0,1,6.16,6.16v300a6.16,6.16,0,0,1-6.16,6.16H1410.36a6.16,6.16,0,0,1-6.16-6.16v-300A6.16,6.16,0,0,1,1410.36,94.21Z" transform="translate(0 -23.32)"/><rect id="Rectangle_17" data-name="Rectangle 17" class="cls-4" x="1427.44" y="96.75" width="129.86" height="22.99"/><rect id="Rectangle_18" data-name="Rectangle 18" class="cls-4" x="1427.44" y="134.73" width="129.86" height="22.99"/><rect id="Rectangle_19" data-name="Rectangle 19" class="cls-4" x="1427.44" y="172.71" width="129.86" height="22.99"/><rect id="Rectangle_20" data-name="Rectangle 20" class="cls-4" x="1428.55" y="210.69" width="129.86" height="22.99"/><ellipse id="Ellipse_9" data-name="Ellipse 9" class="cls-5" cx="1546.43" cy="107.85" rx="7.5" ry="8.19"/><ellipse id="Ellipse_10" data-name="Ellipse 10" class="cls-5" cx="1546.43" cy="146.22" rx="7.5" ry="8.19"/><ellipse id="Ellipse_11" data-name="Ellipse 11" class="cls-5" cx="1546.43" cy="184.2" rx="7.5" ry="8.19"/><ellipse id="Ellipse_12" data-name="Ellipse 12" class="cls-5" cx="1546.43" cy="222.18" rx="7.5" ry="8.19"/><ellipse id="Ellipse_13" data-name="Ellipse 13" class="cls-6" cx="896.37" cy="178.07" rx="64.26" ry="81.59"/><path id="Path_31" data-name="Path 31" class="cls-6" d="M769.37,193.44c-.66-26.81,20.27-49.11,46.71-49.78s48.43,20.56,49.08,47.37-20.27,49.12-46.71,49.78S770,220.25,769.37,193.44Z" transform="translate(0 -23.32)"/><path id="Path_32" data-name="Path 32" class="cls-6" d="M914.74,180.26c-.65-26.81,20.28-49.12,46.71-49.78s48.43,20.56,49.08,47.37-20.27,49.12-46.7,49.78S915.4,207.07,914.74,180.26Z" transform="translate(0 -23.32)"/><path id="Path_33" data-name="Path 33" class="cls-6" d="M736.38,248.91c-.7-28.74,31.21-52.89,71.21-53.9s73.06,21.51,73.76,50.25-31.2,52.89-71.21,53.9S737.09,277.65,736.38,248.91Z" transform="translate(0 -23.32)"/><path id="Path_34" data-name="Path 34" class="cls-6" d="M960.76,262.11c-.54-21.78,22.16-40.05,50.65-40.77s52.05,16.39,52.58,38.17-22.16,40.06-50.65,40.77S961.29,283.89,960.76,262.11Z" transform="translate(0 -23.32)"/><path id="Path_35" data-name="Path 35" class="cls-6" d="M910,229.3c-6.91-29.15,19.15-60.53,58.16-70s76.28,6.45,83.19,35.6-19.16,60.52-58.16,70S916.92,258.45,910,229.3Z" transform="translate(0 -23.32)"/><rect id="Rectangle_21" data-name="Rectangle 21" class="cls-6" x="793.55" y="227.18" width="232.1" height="48.49"/><g class="cls-7"><g id="Group_8" data-name="Group 8"><g id="API" class="cls-8"><g class="cls-8"><path d="M888,210.45l-9.72,24.16a1.34,1.34,0,0,1-.44.6,1.1,1.1,0,0,1-.64.2,1.08,1.08,0,0,1-.84-.3,1.17,1.17,0,0,1-.32-.74.92.92,0,0,1,0-.48l10.56-25.84a1.21,1.21,0,0,1,1.2-.8,1.14,1.14,0,0,1,.7.22,1.47,1.47,0,0,1,.46.58l10.52,25.72a1.61,1.61,0,0,1,.08.48,1.06,1.06,0,0,1-.36.86,1.27,1.27,0,0,1-.84.3,1.12,1.12,0,0,1-.7-.22,1.39,1.39,0,0,1-.46-.58l-10-24.32Zm-7.4,16.84,1-2.36H894l.48,2.36Z" transform="translate(0 -23.32)"/><path d="M915.23,207.37a7.63,7.63,0,0,1,4,1,7.45,7.45,0,0,1,2.72,2.82,8.4,8.4,0,0,1,1,4.12,8.75,8.75,0,0,1-1,4.18,7.79,7.79,0,0,1-2.72,2.94,7.31,7.31,0,0,1-4,1.08h-8.48l.2-.4v11a1.23,1.23,0,0,1-1.2,1.2,1.1,1.1,0,0,1-.88-.36,1.19,1.19,0,0,1-.32-.84v-25.6a1.23,1.23,0,0,1,1.2-1.2Zm0,13.84a4.77,4.77,0,0,0,2.72-.78,5.39,5.39,0,0,0,1.82-2.12,6.65,6.65,0,0,0,.66-3,6.17,6.17,0,0,0-.66-2.9,4.9,4.9,0,0,0-4.54-2.7h-8.48l.2-.36v12.08l-.24-.24Z" transform="translate(0 -23.32)"/><path d="M930.91,234.13a1.33,1.33,0,0,1-.42.88,1.23,1.23,0,0,1-.86.36,1.16,1.16,0,0,1-.9-.36,1.21,1.21,0,0,1-.34-.88V208.61a1.19,1.19,0,0,1,.36-.88,1.28,1.28,0,0,1,1.78,0,1.17,1.17,0,0,1,.38.88Z" transform="translate(0 -23.32)"/></g></g></g></g><path id="Path_36" data-name="Path 36" d="M406,292.56,395.1,313.78,372,288.42Z" transform="translate(0 -23.32)"/><g class="cls-9"><g id="Group_9" data-name="Group 9"><g id="Returnerar_tidtabell" data-name="Returnerar tidtabell" class="cls-8"><g class="cls-8"><path d="M422,384.46a1,1,0,0,1-.73-.27.85.85,0,0,1-.29-.64V364.36a.9.9,0,0,1,.9-.9H430a6.29,6.29,0,0,1,3.06.73,5.45,5.45,0,0,1,2.12,2,5.59,5.59,0,0,1,.76,2.91,6,6,0,0,1-.48,2.42,5.15,5.15,0,0,1-1.35,1.88,5.45,5.45,0,0,1-1.95,1.12l-1.05-.33a4.56,4.56,0,0,1,3.62,2.39,5.47,5.47,0,0,1,.61,2.56,17.44,17.44,0,0,0,.14,2,3,3,0,0,0,.31,1.07,1.59,1.59,0,0,0,.54.58.91.91,0,0,1,.41.5.73.73,0,0,1-.08.63.68.68,0,0,1-.34.35,1.1,1.1,0,0,1-.47.1,1.07,1.07,0,0,1-.48-.12,3,3,0,0,1-.85-.75,3.88,3.88,0,0,1-.72-1.5,10.27,10.27,0,0,1-.29-2.75,4.27,4.27,0,0,0-.37-1.92,3,3,0,0,0-1-1.16,3.74,3.74,0,0,0-1.29-.57,5.89,5.89,0,0,0-1.34-.16h-7l.33-.42v8.48a.93.93,0,0,1-.24.64A.8.8,0,0,1,422,384.46Zm.54-10.62h7.53a4.16,4.16,0,0,0,1.92-.68,4.3,4.3,0,0,0,1.46-1.61,4.81,4.81,0,0,0,.55-2.36,3.8,3.8,0,0,0-1.15-2.84,4.15,4.15,0,0,0-3-1.13H422.7l.21-.42v9.46Z" transform="translate(0 -23.32)"/><path d="M447.33,384.76a8.22,8.22,0,0,1-4.08-1,7,7,0,0,1-2.76-2.75,8.34,8.34,0,0,1-1-4.14,8.86,8.86,0,0,1,1-4.36,7.42,7.42,0,0,1,2.61-2.77,6.44,6.44,0,0,1,3.4-1,7.31,7.31,0,0,1,2.57.47,6.4,6.4,0,0,1,2.2,1.38,7.2,7.2,0,0,1,1.56,2.23,7.74,7.74,0,0,1,.63,3.07.8.8,0,0,1-.27.61.89.89,0,0,1-.63.26h-12l-.36-1.62H452l-.39.35v-.59a4.6,4.6,0,0,0-.93-2.41,5.31,5.31,0,0,0-1.87-1.5,5.39,5.39,0,0,0-2.3-.5,5.14,5.14,0,0,0-1.84.36A4.83,4.83,0,0,0,443,372a5.8,5.8,0,0,0-1.25,1.95,7.48,7.48,0,0,0-.48,2.81A7.08,7.08,0,0,0,442,380a5.56,5.56,0,0,0,2.07,2.28,6.07,6.07,0,0,0,3.27.84,5.4,5.4,0,0,0,3.35-1.1,6.13,6.13,0,0,0,1.06-1,1,1,0,0,1,.63-.28.75.75,0,0,1,.56.25.76.76,0,0,1,.22.54.82.82,0,0,1-.3.63,8.24,8.24,0,0,1-2.34,1.87A6.41,6.41,0,0,1,447.33,384.76Z" transform="translate(0 -23.32)"/><path d="M456.21,369.19h7a.79.79,0,0,1,.6.25.87.87,0,0,1,.24.61.78.78,0,0,1-.24.58.81.81,0,0,1-.6.24h-7a.83.83,0,0,1-.61-.26.8.8,0,0,1-.26-.58.83.83,0,0,1,.26-.61A.89.89,0,0,1,456.21,369.19ZM459.3,365a.89.89,0,0,1,.65.26.92.92,0,0,1,.25.64v15.06a2.67,2.67,0,0,0,.23,1.25,1.08,1.08,0,0,0,.58.56,2,2,0,0,0,.72.14,1.23,1.23,0,0,0,.44-.08,1.18,1.18,0,0,1,.43-.07.65.65,0,0,1,.47.2.8.8,0,0,1,.19.55.82.82,0,0,1-.48.7,2.19,2.19,0,0,1-1.14.29c-.18,0-.45,0-.81,0a3,3,0,0,1-1.11-.33,2.24,2.24,0,0,1-.94-1,4.6,4.6,0,0,1-.38-2.07V365.86a.93.93,0,0,1,.26-.64A.87.87,0,0,1,459.3,365Z" transform="translate(0 -23.32)"/><path d="M478.83,369.22a.83.83,0,0,1,.65.27.88.88,0,0,1,.25.63v8.46a5.89,5.89,0,0,1-1.68,4.53,6.39,6.39,0,0,1-4.53,1.56,6.28,6.28,0,0,1-4.48-1.56,5.93,5.93,0,0,1-1.67-4.53v-8.46a.89.89,0,0,1,.26-.63.81.81,0,0,1,.64-.27.83.83,0,0,1,.65.27.88.88,0,0,1,.25.63v8.46a4,4,0,0,0,4.35,4.41,4.48,4.48,0,0,0,3.24-1.13,4.35,4.35,0,0,0,1.17-3.28v-8.46a.92.92,0,0,1,.24-.63A.81.81,0,0,1,478.83,369.22Z" transform="translate(0 -23.32)"/><path d="M485.34,384.46a.84.84,0,0,1-.66-.27.93.93,0,0,1-.24-.64V370.12a.89.89,0,0,1,.26-.63.81.81,0,0,1,.64-.27.83.83,0,0,1,.65.27.88.88,0,0,1,.25.63v4.5l-.45.09a6.92,6.92,0,0,1,.53-2.09,7.1,7.1,0,0,1,1.18-1.9,6,6,0,0,1,1.79-1.42,5.05,5.05,0,0,1,2.32-.54,2.58,2.58,0,0,1,1.05.23.75.75,0,0,1,.51.73.94.94,0,0,1-.24.7.78.78,0,0,1-.57.24,1.35,1.35,0,0,1-.58-.15,2,2,0,0,0-.83-.15,3.28,3.28,0,0,0-1.68.49,5.81,5.81,0,0,0-1.53,1.34,6.84,6.84,0,0,0-1.09,1.87,5.71,5.71,0,0,0-.41,2.09v7.4a.92.92,0,0,1-.9.91Z" transform="translate(0 -23.32)"/><path d="M503.22,368.76a5.62,5.62,0,0,1,3.17.8,4.46,4.46,0,0,1,1.71,2.16,8.36,8.36,0,0,1,.52,3v8.81a.92.92,0,0,1-.9.91.84.84,0,0,1-.66-.27.93.93,0,0,1-.24-.64v-8.72a6,6,0,0,0-.39-2.2,3.34,3.34,0,0,0-1.27-1.58,4.09,4.09,0,0,0-2.33-.6,5.21,5.21,0,0,0-2.44.6,5.28,5.28,0,0,0-1.88,1.58,3.69,3.69,0,0,0-.72,2.2v8.72a.92.92,0,0,1-.9.91.84.84,0,0,1-.66-.27.93.93,0,0,1-.24-.64V370.12a.89.89,0,0,1,.26-.63.81.81,0,0,1,.64-.27.83.83,0,0,1,.65.27.88.88,0,0,1,.25.63v2.51l-.69,1.09a3.92,3.92,0,0,1,.62-1.85,6.45,6.45,0,0,1,1.42-1.59,7,7,0,0,1,1.94-1.11A6,6,0,0,1,503.22,368.76Z" transform="translate(0 -23.32)"/><path d="M520.14,384.76a8.22,8.22,0,0,1-4.08-1A7,7,0,0,1,513.3,381a8.34,8.34,0,0,1-1-4.14,8.86,8.86,0,0,1,1-4.36,7.42,7.42,0,0,1,2.61-2.77,6.44,6.44,0,0,1,3.4-1,7.31,7.31,0,0,1,2.57.47,6.4,6.4,0,0,1,2.2,1.38,7.2,7.2,0,0,1,1.56,2.23,7.74,7.74,0,0,1,.63,3.07.8.8,0,0,1-.27.61.89.89,0,0,1-.63.26h-12l-.36-1.62h11.82l-.39.35v-.59a4.6,4.6,0,0,0-.93-2.41,5.31,5.31,0,0,0-1.87-1.5,5.39,5.39,0,0,0-2.3-.5,5.14,5.14,0,0,0-1.84.36,4.83,4.83,0,0,0-1.71,1.12,5.8,5.8,0,0,0-1.25,1.95,7.48,7.48,0,0,0-.48,2.81,7.08,7.08,0,0,0,.72,3.21,5.56,5.56,0,0,0,2.07,2.28,6.07,6.07,0,0,0,3.27.84,5.4,5.4,0,0,0,3.35-1.1,6.13,6.13,0,0,0,1.06-1,1,1,0,0,1,.63-.28.75.75,0,0,1,.56.25.76.76,0,0,1,.22.54.82.82,0,0,1-.3.63,8.24,8.24,0,0,1-2.34,1.87A6.41,6.41,0,0,1,520.14,384.76Z" transform="translate(0 -23.32)"/><path d="M530.91,384.46a.84.84,0,0,1-.66-.27.93.93,0,0,1-.24-.64V370.12a.89.89,0,0,1,.26-.63.81.81,0,0,1,.64-.27.83.83,0,0,1,.65.27.88.88,0,0,1,.25.63v4.5l-.45.09a6.92,6.92,0,0,1,.53-2.09,7.1,7.1,0,0,1,1.18-1.9,6,6,0,0,1,1.79-1.42,5.05,5.05,0,0,1,2.32-.54,2.58,2.58,0,0,1,1.05.23.75.75,0,0,1,.51.73.94.94,0,0,1-.24.7.78.78,0,0,1-.57.24,1.35,1.35,0,0,1-.58-.15,2,2,0,0,0-.83-.15,3.28,3.28,0,0,0-1.68.49,5.81,5.81,0,0,0-1.53,1.34,6.84,6.84,0,0,0-1.09,1.87,5.71,5.71,0,0,0-.41,2.09v7.4a.92.92,0,0,1-.9.91Z" transform="translate(0 -23.32)"/><path d="M553.65,369.13a.86.86,0,0,1,.65.27.91.91,0,0,1,.25.65v13.5a.92.92,0,0,1-.9.91.84.84,0,0,1-.66-.27.93.93,0,0,1-.24-.64V380l.51-.24a3.6,3.6,0,0,1-.46,1.71,6.21,6.21,0,0,1-1.28,1.62,6.49,6.49,0,0,1-1.9,1.21,6.07,6.07,0,0,1-2.39.47,6.44,6.44,0,0,1-3.61-1.05,7.22,7.22,0,0,1-2.52-2.88,9.06,9.06,0,0,1-.92-4.11,8.82,8.82,0,0,1,.93-4.13,7.2,7.2,0,0,1,2.52-2.8,6.66,6.66,0,0,1,6-.57,5.92,5.92,0,0,1,2,1.23,5.85,5.85,0,0,1,1.32,1.78,4.77,4.77,0,0,1,.48,2.09l-.63-.45v-3.82a1,1,0,0,1,.24-.65A.84.84,0,0,1,553.65,369.13Zm-6.24,13.95a5,5,0,0,0,2.82-.83,5.64,5.64,0,0,0,1.94-2.28,7.34,7.34,0,0,0,.7-3.25,7,7,0,0,0-.7-3.18,5.83,5.83,0,0,0-1.94-2.25,4.88,4.88,0,0,0-2.82-.84,5,5,0,0,0-2.8.81,5.58,5.58,0,0,0-2,2.21,7.23,7.23,0,0,0-.71,3.25,7.48,7.48,0,0,0,.69,3.25,5.49,5.49,0,0,0,1.94,2.28A5,5,0,0,0,547.41,383.08Z" transform="translate(0 -23.32)"/><path d="M560.16,384.46a.84.84,0,0,1-.66-.27.93.93,0,0,1-.24-.64V370.12a.89.89,0,0,1,.26-.63.81.81,0,0,1,.64-.27.83.83,0,0,1,.65.27.88.88,0,0,1,.25.63v4.5l-.45.09a6.92,6.92,0,0,1,.53-2.09,7.1,7.1,0,0,1,1.18-1.9,6,6,0,0,1,1.79-1.42,5.05,5.05,0,0,1,2.32-.54,2.58,2.58,0,0,1,1.05.23.75.75,0,0,1,.51.73.94.94,0,0,1-.24.7.78.78,0,0,1-.57.24,1.35,1.35,0,0,1-.58-.15,2,2,0,0,0-.83-.15,3.28,3.28,0,0,0-1.68.49,5.81,5.81,0,0,0-1.53,1.34,6.84,6.84,0,0,0-1.09,1.87,5.71,5.71,0,0,0-.41,2.09v7.4a.92.92,0,0,1-.9.91Z" transform="translate(0 -23.32)"/><path d="M578,369.19h7a.79.79,0,0,1,.6.25.87.87,0,0,1,.24.61.78.78,0,0,1-.24.58.81.81,0,0,1-.6.24h-7a.83.83,0,0,1-.61-.26.8.8,0,0,1-.26-.58.83.83,0,0,1,.26-.61A.89.89,0,0,1,578,369.19ZM581.1,365a.89.89,0,0,1,.65.26.92.92,0,0,1,.25.64v15.06a2.67,2.67,0,0,0,.23,1.25,1.08,1.08,0,0,0,.58.56,2,2,0,0,0,.72.14,1.23,1.23,0,0,0,.44-.08,1.18,1.18,0,0,1,.43-.07.65.65,0,0,1,.47.2.8.8,0,0,1,.19.55.82.82,0,0,1-.48.7,2.19,2.19,0,0,1-1.14.29c-.18,0-.45,0-.81,0a3,3,0,0,1-1.11-.33,2.24,2.24,0,0,1-.94-1,4.6,4.6,0,0,1-.38-2.07V365.86a.93.93,0,0,1,.26-.64A.87.87,0,0,1,581.1,365Z" transform="translate(0 -23.32)"/><path d="M590,366.84a1.35,1.35,0,0,1-.94-.28,1.06,1.06,0,0,1-.32-.82v-.3a1,1,0,0,1,.35-.83,1.42,1.42,0,0,1,.94-.28,1.28,1.28,0,0,1,.89.28,1.06,1.06,0,0,1,.31.83v.3a1.06,1.06,0,0,1-.31.82A1.33,1.33,0,0,1,590,366.84Zm.9,16.71a.92.92,0,0,1-.9.91.84.84,0,0,1-.64-.27.9.9,0,0,1-.26-.64V369.76a.86.86,0,0,1,.26-.63.84.84,0,0,1,.64-.27.89.89,0,0,1,.9.9Z" transform="translate(0 -23.32)"/><path d="M608,362.26a.86.86,0,0,1,.9.9v20.39a.92.92,0,0,1-.9.91.84.84,0,0,1-.66-.27.93.93,0,0,1-.24-.64V380l.51-.42a4,4,0,0,1-.45,1.75,5.78,5.78,0,0,1-1.27,1.69,6.49,6.49,0,0,1-1.92,1.27,6.07,6.07,0,0,1-2.39.48,6.39,6.39,0,0,1-3.58-1.05,7.46,7.46,0,0,1-2.54-2.85,9.52,9.52,0,0,1,0-8.21A7.28,7.28,0,0,1,598,369.8a6.41,6.41,0,0,1,3.57-1,6.25,6.25,0,0,1,2.37.46,6.18,6.18,0,0,1,2,1.23,6,6,0,0,1,1.35,1.78,4.65,4.65,0,0,1,.49,2.09l-.63-.45V363.16a.92.92,0,0,1,.24-.63A.81.81,0,0,1,608,362.26Zm-6.24,20.82a5,5,0,0,0,2.82-.83,5.69,5.69,0,0,0,1.94-2.25,7.85,7.85,0,0,0,0-6.48,5.69,5.69,0,0,0-1.94-2.25,5.22,5.22,0,0,0-5.62,0,5.63,5.63,0,0,0-2,2.25,7.2,7.2,0,0,0-.71,3.23,7.27,7.27,0,0,0,.71,3.24,5.6,5.6,0,0,0,2,2.26A5,5,0,0,0,601.8,383.08Z" transform="translate(0 -23.32)"/><path d="M612.66,369.19h7a.79.79,0,0,1,.6.25.87.87,0,0,1,.24.61.78.78,0,0,1-.24.58.81.81,0,0,1-.6.24h-7a.83.83,0,0,1-.61-.26.8.8,0,0,1-.26-.58.83.83,0,0,1,.26-.61A.89.89,0,0,1,612.66,369.19Zm3.09-4.23a.89.89,0,0,1,.65.26.92.92,0,0,1,.25.64v15.06a2.67,2.67,0,0,0,.23,1.25,1.08,1.08,0,0,0,.58.56,2,2,0,0,0,.72.14,1.23,1.23,0,0,0,.44-.08,1.18,1.18,0,0,1,.43-.07.65.65,0,0,1,.47.2.8.8,0,0,1,.19.55.82.82,0,0,1-.48.7,2.19,2.19,0,0,1-1.14.29c-.18,0-.45,0-.81,0a3,3,0,0,1-1.11-.33,2.24,2.24,0,0,1-.94-1,4.6,4.6,0,0,1-.38-2.07V365.86a.93.93,0,0,1,.26-.64A.87.87,0,0,1,615.75,365Z" transform="translate(0 -23.32)"/><path d="M636.27,369.13a.86.86,0,0,1,.65.27.91.91,0,0,1,.25.65v13.5a.92.92,0,0,1-.9.91.84.84,0,0,1-.66-.27.93.93,0,0,1-.24-.64V380l.51-.24a3.6,3.6,0,0,1-.46,1.71,6.21,6.21,0,0,1-1.28,1.62,6.49,6.49,0,0,1-1.9,1.21,6.07,6.07,0,0,1-2.39.47,6.44,6.44,0,0,1-3.61-1.05,7.22,7.22,0,0,1-2.52-2.88,9.06,9.06,0,0,1-.92-4.11,8.82,8.82,0,0,1,.93-4.13,7.2,7.2,0,0,1,2.52-2.8,6.66,6.66,0,0,1,6-.57,5.92,5.92,0,0,1,2,1.23,5.85,5.85,0,0,1,1.32,1.78,4.77,4.77,0,0,1,.48,2.09l-.63-.45v-3.82a1,1,0,0,1,.24-.65A.84.84,0,0,1,636.27,369.13ZM630,383.08a5,5,0,0,0,2.82-.83,5.64,5.64,0,0,0,1.94-2.28,7.34,7.34,0,0,0,.7-3.25,7,7,0,0,0-.7-3.18,5.83,5.83,0,0,0-1.94-2.25,4.88,4.88,0,0,0-2.82-.84,5,5,0,0,0-2.8.81,5.58,5.58,0,0,0-2,2.21,7.23,7.23,0,0,0-.71,3.25,7.48,7.48,0,0,0,.69,3.25,5.49,5.49,0,0,0,1.94,2.28A5,5,0,0,0,630,383.08Z" transform="translate(0 -23.32)"/><path d="M649.17,368.76a6.53,6.53,0,0,1,3.62,1,7.23,7.23,0,0,1,2.5,2.8,8.82,8.82,0,0,1,.93,4.13,8.94,8.94,0,0,1-.93,4.11,7.37,7.37,0,0,1-2.52,2.88,6.34,6.34,0,0,1-3.57,1.05,6,6,0,0,1-2-.34,6.56,6.56,0,0,1-1.73-.88,6.81,6.81,0,0,1-1.38-1.3,6.66,6.66,0,0,1-1-1.62l.54-.4v3.4a.86.86,0,0,1-.25.64.88.88,0,0,1-.65.25.87.87,0,0,1-.9-.89V363.19a.92.92,0,0,1,.24-.65.86.86,0,0,1,.66-.25.86.86,0,0,1,.9.9v10.05l-.42-.24a5.64,5.64,0,0,1,.89-1.7,6.6,6.6,0,0,1,1.36-1.33,6.33,6.33,0,0,1,1.71-.89A6,6,0,0,1,649.17,368.76Zm-.15,1.69a5.06,5.06,0,0,0-2.85.81,5.61,5.61,0,0,0-1.93,2.21,7.23,7.23,0,0,0-.71,3.25,7.35,7.35,0,0,0,.71,3.25,5.62,5.62,0,0,0,1.93,2.28,5,5,0,0,0,2.85.83,4.83,4.83,0,0,0,2.81-.84,5.91,5.91,0,0,0,1.93-2.3,7.63,7.63,0,0,0,0-6.47,5.77,5.77,0,0,0-1.93-2.21A5,5,0,0,0,649,370.45Z" transform="translate(0 -23.32)"/><path d="M666.75,384.76a8.22,8.22,0,0,1-4.08-1,7,7,0,0,1-2.76-2.75,8.34,8.34,0,0,1-1-4.14,8.76,8.76,0,0,1,1-4.36,7.42,7.42,0,0,1,2.61-2.77,6.42,6.42,0,0,1,3.4-1,7.31,7.31,0,0,1,2.57.47,6.49,6.49,0,0,1,2.2,1.38,7.2,7.2,0,0,1,1.56,2.23,7.74,7.74,0,0,1,.63,3.07.8.8,0,0,1-.27.61.89.89,0,0,1-.63.26H660l-.36-1.62h11.82l-.39.35v-.59a4.6,4.6,0,0,0-.93-2.41,5.31,5.31,0,0,0-1.87-1.5,5.42,5.42,0,0,0-2.3-.5,5.14,5.14,0,0,0-1.84.36,4.83,4.83,0,0,0-1.71,1.12,5.8,5.8,0,0,0-1.25,1.95,7.48,7.48,0,0,0-.48,2.81,7.08,7.08,0,0,0,.72,3.21,5.56,5.56,0,0,0,2.07,2.28,6.07,6.07,0,0,0,3.27.84,5.5,5.5,0,0,0,1.86-.3,5.6,5.6,0,0,0,1.49-.8,6.13,6.13,0,0,0,1.06-1,1,1,0,0,1,.63-.28.75.75,0,0,1,.56.25.76.76,0,0,1,.22.54.82.82,0,0,1-.3.63A8.24,8.24,0,0,1,669.9,384,6.41,6.41,0,0,1,666.75,384.76Z" transform="translate(0 -23.32)"/><path d="M678.6,383.55a.92.92,0,0,1-.9.91.84.84,0,0,1-.64-.27.9.9,0,0,1-.26-.64V363.16a.86.86,0,0,1,.27-.63.89.89,0,0,1,1.28,0,.88.88,0,0,1,.25.63Z" transform="translate(0 -23.32)"/><path d="M685.5,383.55a.92.92,0,0,1-.9.91.82.82,0,0,1-.64-.27.9.9,0,0,1-.26-.64V363.16a.86.86,0,0,1,.27-.63.89.89,0,0,1,1.28,0,.88.88,0,0,1,.25.63Z" transform="translate(0 -23.32)"/></g></g></g></g><g class="cls-10"><g id="Group_10" data-name="Group 10"><g id="Hämtar_tidtabell" data-name="Hämtar tidtabell" class="cls-8"><g class="cls-8"><path d="M1101,320.5a.9.9,0,0,1,.64.27.88.88,0,0,1,.29.66v19.14a1,1,0,0,1-.32.66.94.94,0,0,1-1.32,0,.92.92,0,0,1-.25-.66V321.43a.9.9,0,0,1,.27-.66A.93.93,0,0,1,1101,320.5Zm-.15,9.39h14.25l0,1.74h-14.34Zm14.22-9.39a.87.87,0,0,1,.67.27.93.93,0,0,1,.26.66v19.14a1.05,1.05,0,0,1-.29.66.87.87,0,0,1-.67.27.92.92,0,0,1-.93-.93V321.43a.87.87,0,0,1,.28-.66A1,1,0,0,1,1115.08,320.5Z" transform="translate(0 -23.32)"/><path d="M1133.65,326.17a.84.84,0,0,1,.64.27.93.93,0,0,1,.26.66v13.5a.92.92,0,0,1-.9.9.84.84,0,0,1-.66-.27.92.92,0,0,1-.24-.63V337l.51-.24a3.62,3.62,0,0,1-.47,1.71,6.17,6.17,0,0,1-1.27,1.62,6.55,6.55,0,0,1-1.91,1.21,6,6,0,0,1-2.38.47,6.47,6.47,0,0,1-3.62-1.05,7.22,7.22,0,0,1-2.52-2.88,9.06,9.06,0,0,1-.91-4.11,8.82,8.82,0,0,1,.93-4.13,7.2,7.2,0,0,1,2.52-2.8,6.73,6.73,0,0,1,6-.57,6.31,6.31,0,0,1,2,1.23,5.85,5.85,0,0,1,1.32,1.78,4.8,4.8,0,0,1,.48,2.09l-.63-.45V327.1a1,1,0,0,1,.24-.66A.84.84,0,0,1,1133.65,326.17Zm-6.24,13.95a5,5,0,0,0,2.82-.83,5.62,5.62,0,0,0,1.93-2.28,7.35,7.35,0,0,0,.71-3.25,7,7,0,0,0-.71-3.18,5.8,5.8,0,0,0-1.93-2.25,4.88,4.88,0,0,0-2.82-.84,5,5,0,0,0-2.81.81,5.54,5.54,0,0,0-1.95,2.22,7.15,7.15,0,0,0-.7,3.24,7.48,7.48,0,0,0,.69,3.25,5.47,5.47,0,0,0,1.93,2.28A5,5,0,0,0,1127.41,340.12Zm-2.67-16.38a1.25,1.25,0,0,1-.92-.32,1.18,1.18,0,0,1-.31-.88v-.3a1.18,1.18,0,0,1,.33-.89,1.25,1.25,0,0,1,.9-.31,1.23,1.23,0,0,1,.91.31,1.21,1.21,0,0,1,.32.89v.3a1.16,1.16,0,0,1-.33.9A1.29,1.29,0,0,1,1124.74,323.74Zm5.16,0a1.25,1.25,0,0,1-.92-.32,1.18,1.18,0,0,1-.31-.88v-.3a1.18,1.18,0,0,1,.33-.89,1.29,1.29,0,0,1,.93-.31,1.18,1.18,0,0,1,.88.31,1.21,1.21,0,0,1,.32.89v.3a1.16,1.16,0,0,1-.33.9A1.29,1.29,0,0,1,1129.9,323.74Z" transform="translate(0 -23.32)"/><path d="M1146.16,326.05a5.2,5.2,0,0,1,3.18,1,4.94,4.94,0,0,1,1.8,2.9l-.42.12.18-.54a4.81,4.81,0,0,1,1.3-1.7,7.5,7.5,0,0,1,2.09-1.27,6.2,6.2,0,0,1,2.37-.48,5.18,5.18,0,0,1,3,.81,4.6,4.6,0,0,1,1.68,2.17,8.54,8.54,0,0,1,.53,3.08v8.49a.89.89,0,0,1-.26.63.84.84,0,0,1-.64.27.86.86,0,0,1-.65-.27.88.88,0,0,1-.25-.63v-8.4a6.25,6.25,0,0,0-.39-2.25,3.45,3.45,0,0,0-1.23-1.62,3.8,3.8,0,0,0-2.25-.6,5,5,0,0,0-2.36.6,5.11,5.11,0,0,0-1.83,1.62,3.87,3.87,0,0,0-.7,2.25v8.4a.89.89,0,0,1-.26.63.84.84,0,0,1-.64.27.86.86,0,0,1-.65-.27.88.88,0,0,1-.25-.63v-8.49a6.46,6.46,0,0,0-.36-2.22,3.28,3.28,0,0,0-1.17-1.58,3.67,3.67,0,0,0-2.19-.58,5,5,0,0,0-4.1,2.16,3.85,3.85,0,0,0-.67,2.22v8.49a.92.92,0,0,1-.9.9.84.84,0,0,1-.66-.27.92.92,0,0,1-.24-.63V327.16a.88.88,0,0,1,.25-.63.86.86,0,0,1,.65-.27.84.84,0,0,1,.64.27.89.89,0,0,1,.26.63V330l-.81,1.11a4.68,4.68,0,0,1,.58-1.8,6.1,6.1,0,0,1,1.31-1.62,6.6,6.6,0,0,1,1.84-1.16A5.58,5.58,0,0,1,1146.16,326.05Z" transform="translate(0 -23.32)"/><path d="M1165.63,326.23h7a.79.79,0,0,1,.6.25.88.88,0,0,1,.24.62.78.78,0,0,1-.24.57.81.81,0,0,1-.6.24h-7a.85.85,0,0,1-.62-.26.82.82,0,0,1,0-1.18A.88.88,0,0,1,1165.63,326.23Zm3.09-4.23a.84.84,0,0,1,.64.27.89.89,0,0,1,.26.63V338a2.76,2.76,0,0,0,.22,1.26,1.12,1.12,0,0,0,.59.55,2,2,0,0,0,.72.14,1.18,1.18,0,0,0,.43-.08,1.23,1.23,0,0,1,.44-.07.6.6,0,0,1,.46.21.77.77,0,0,1,.2.54.82.82,0,0,1-.48.7,2.19,2.19,0,0,1-1.14.29c-.18,0-.45,0-.81-.05a3,3,0,0,1-1.11-.33,2.2,2.2,0,0,1-1-1,4.59,4.59,0,0,1-.37-2.07V322.9a.88.88,0,0,1,.25-.63A.86.86,0,0,1,1168.72,322Z" transform="translate(0 -23.32)"/><path d="M1189.24,326.17a.84.84,0,0,1,.64.27.93.93,0,0,1,.26.66v13.5a.9.9,0,0,1-.27.63.86.86,0,0,1-.63.27.84.84,0,0,1-.66-.27.92.92,0,0,1-.24-.63V337l.51-.24a3.62,3.62,0,0,1-.47,1.71,6.17,6.17,0,0,1-1.27,1.62,6.55,6.55,0,0,1-1.91,1.21,6,6,0,0,1-2.38.47,6.47,6.47,0,0,1-3.62-1.05,7.22,7.22,0,0,1-2.52-2.88,9.06,9.06,0,0,1-.91-4.11,8.82,8.82,0,0,1,.93-4.13,7.26,7.26,0,0,1,2.51-2.8,6.75,6.75,0,0,1,6-.57,6.31,6.31,0,0,1,2,1.23,6,6,0,0,1,1.32,1.78,4.94,4.94,0,0,1,.47,2.09l-.62-.45V327.1a1,1,0,0,1,.24-.66A.84.84,0,0,1,1189.24,326.17ZM1183,340.12a5,5,0,0,0,2.82-.83,5.7,5.7,0,0,0,1.93-2.28,7.35,7.35,0,0,0,.71-3.25,7,7,0,0,0-.71-3.18,5.89,5.89,0,0,0-1.93-2.25,4.9,4.9,0,0,0-2.82-.84,5,5,0,0,0-2.81.81,5.54,5.54,0,0,0-2,2.22,7.15,7.15,0,0,0-.7,3.24,7.48,7.48,0,0,0,.69,3.25,5.47,5.47,0,0,0,1.93,2.28A5,5,0,0,0,1183,340.12Z" transform="translate(0 -23.32)"/><path d="M1195.75,341.5a.86.86,0,0,1-.67-.27.91.91,0,0,1-.23-.63V327.16a.88.88,0,0,1,.25-.63.85.85,0,0,1,.65-.27.85.85,0,0,1,.64.27.88.88,0,0,1,.25.63v4.5l-.44.09a6.61,6.61,0,0,1,.52-2.09,6.89,6.89,0,0,1,1.19-1.9,5.85,5.85,0,0,1,1.78-1.41,4.94,4.94,0,0,1,2.33-.54,2.52,2.52,0,0,1,1,.22.78.78,0,0,1,.52.74.9.9,0,0,1-.25.69.77.77,0,0,1-.56.24,1.36,1.36,0,0,1-.59-.15,1.91,1.91,0,0,0-.82-.15,3.22,3.22,0,0,0-1.68.49,6,6,0,0,0-1.54,1.34,6.84,6.84,0,0,0-1.09,1.87,5.71,5.71,0,0,0-.41,2.09v7.41a.89.89,0,0,1-.26.63A.88.88,0,0,1,1195.75,341.5Z" transform="translate(0 -23.32)"/><path d="M1213.59,326.23h7a.82.82,0,0,1,.61.25.91.91,0,0,1,.23.62.81.81,0,0,1-.23.57.85.85,0,0,1-.61.24h-7a.85.85,0,0,1-.61-.26.8.8,0,0,1,0-1.18A.87.87,0,0,1,1213.59,326.23Zm3.1-4.23a.85.85,0,0,1,.64.27.88.88,0,0,1,.25.63V338a2.74,2.74,0,0,0,.23,1.26,1.1,1.1,0,0,0,.58.55,2.1,2.1,0,0,0,.73.14,1.18,1.18,0,0,0,.43-.08,1.18,1.18,0,0,1,.43-.07.61.61,0,0,1,.47.21.76.76,0,0,1,.19.54.82.82,0,0,1-.47.7,2.25,2.25,0,0,1-1.14.29c-.19,0-.46,0-.82-.05a3,3,0,0,1-1.1-.33,2.15,2.15,0,0,1-.95-1,4.59,4.59,0,0,1-.37-2.07V322.9a.88.88,0,0,1,.25-.63A.85.85,0,0,1,1216.69,322Z" transform="translate(0 -23.32)"/><path d="M1225.59,323.89a1.36,1.36,0,0,1-.94-.29,1,1,0,0,1-.32-.82v-.3a1,1,0,0,1,.35-.83,1.42,1.42,0,0,1,.94-.28,1.28,1.28,0,0,1,.89.28,1.06,1.06,0,0,1,.31.83v.3a1,1,0,0,1-.31.82A1.33,1.33,0,0,1,1225.59,323.89Zm.9,16.71a.92.92,0,0,1-.9.9.84.84,0,0,1-.64-.27.88.88,0,0,1-.25-.63V326.8a.88.88,0,0,1,.25-.63.84.84,0,0,1,.64-.27.86.86,0,0,1,.65.27.88.88,0,0,1,.25.63Z" transform="translate(0 -23.32)"/><path d="M1243.62,319.3a.86.86,0,0,1,.9.9v20.4a.92.92,0,0,1-.9.9.84.84,0,0,1-.66-.27.92.92,0,0,1-.24-.63V337l.51-.42a4,4,0,0,1-.45,1.75,6,6,0,0,1-1.27,1.7,6.66,6.66,0,0,1-1.92,1.26,5.9,5.9,0,0,1-2.39.48,6.39,6.39,0,0,1-3.58-1.05,7.39,7.39,0,0,1-2.54-2.85,9.52,9.52,0,0,1,0-8.21,7.28,7.28,0,0,1,2.52-2.85,6.4,6.4,0,0,1,3.57-1,6.25,6.25,0,0,1,2.37.45,6.55,6.55,0,0,1,2,1.23,6,6,0,0,1,1.35,1.78,4.68,4.68,0,0,1,.49,2.09l-.63-.45V320.2a.92.92,0,0,1,.24-.63A.84.84,0,0,1,1243.62,319.3Zm-6.24,20.82a5,5,0,0,0,2.82-.83,5.69,5.69,0,0,0,1.94-2.25,7.85,7.85,0,0,0,0-6.48,5.69,5.69,0,0,0-1.94-2.25,5.22,5.22,0,0,0-5.62,0,5.63,5.63,0,0,0-1.95,2.25,7.2,7.2,0,0,0-.71,3.23,7.27,7.27,0,0,0,.71,3.24,5.6,5.6,0,0,0,1.95,2.26A5,5,0,0,0,1237.38,340.12Z" transform="translate(0 -23.32)"/><path d="M1248.24,326.23h7a.79.79,0,0,1,.6.25.88.88,0,0,1,.24.62.78.78,0,0,1-.24.57.81.81,0,0,1-.6.24h-7a.83.83,0,0,1-.61-.26.8.8,0,0,1,0-1.18A.85.85,0,0,1,1248.24,326.23Zm3.09-4.23a.86.86,0,0,1,.65.27.88.88,0,0,1,.25.63V338a2.74,2.74,0,0,0,.23,1.26,1.1,1.1,0,0,0,.58.55,2,2,0,0,0,.72.14,1.23,1.23,0,0,0,.44-.08,1.18,1.18,0,0,1,.43-.07.62.62,0,0,1,.47.21.76.76,0,0,1,.19.54.82.82,0,0,1-.48.7,2.19,2.19,0,0,1-1.14.29c-.18,0-.45,0-.81-.05a3,3,0,0,1-1.11-.33,2.19,2.19,0,0,1-.94-1,4.57,4.57,0,0,1-.38-2.07V322.9a.89.89,0,0,1,.26-.63A.84.84,0,0,1,1251.33,322Z" transform="translate(0 -23.32)"/><path d="M1271.85,326.17a.86.86,0,0,1,.65.27.92.92,0,0,1,.25.66v13.5a.92.92,0,0,1-.9.9.84.84,0,0,1-.66-.27.92.92,0,0,1-.24-.63V337l.51-.24a3.6,3.6,0,0,1-.46,1.71,6.21,6.21,0,0,1-1.28,1.62,6.49,6.49,0,0,1-1.9,1.21,6.07,6.07,0,0,1-2.39.47,6.44,6.44,0,0,1-3.61-1.05,7.22,7.22,0,0,1-2.52-2.88,9.06,9.06,0,0,1-.92-4.11,8.82,8.82,0,0,1,.93-4.13,7.2,7.2,0,0,1,2.52-2.8,6.75,6.75,0,0,1,6-.57,6.26,6.26,0,0,1,2,1.23,5.85,5.85,0,0,1,1.32,1.78,4.8,4.8,0,0,1,.48,2.09l-.63-.45V327.1a1,1,0,0,1,.24-.66A.84.84,0,0,1,1271.85,326.17Zm-6.24,13.95a5,5,0,0,0,2.82-.83,5.64,5.64,0,0,0,1.94-2.28,7.34,7.34,0,0,0,.7-3.25,7,7,0,0,0-.7-3.18,5.83,5.83,0,0,0-1.94-2.25,4.88,4.88,0,0,0-2.82-.84,5,5,0,0,0-2.8.81,5.54,5.54,0,0,0-2,2.22,7.15,7.15,0,0,0-.71,3.24,7.48,7.48,0,0,0,.69,3.25,5.49,5.49,0,0,0,1.94,2.28A5,5,0,0,0,1265.61,340.12Z" transform="translate(0 -23.32)"/><path d="M1284.75,325.81a6.52,6.52,0,0,1,3.62,1,7.23,7.23,0,0,1,2.5,2.8,8.82,8.82,0,0,1,.93,4.13,8.94,8.94,0,0,1-.93,4.11,7.37,7.37,0,0,1-2.52,2.88,6.34,6.34,0,0,1-3.57,1.05,6,6,0,0,1-2-.33,6.9,6.9,0,0,1-1.73-.89,6.81,6.81,0,0,1-1.38-1.3,6.66,6.66,0,0,1-1-1.62l.54-.39v3.39a.86.86,0,0,1-.25.64.89.89,0,0,1-.65.26.89.89,0,0,1-.9-.9V320.23a.92.92,0,0,1,.24-.65.86.86,0,0,1,.66-.25.86.86,0,0,1,.9.9v10l-.42-.24a5.64,5.64,0,0,1,.89-1.7,6.6,6.6,0,0,1,1.36-1.33,6.33,6.33,0,0,1,1.71-.89A6,6,0,0,1,1284.75,325.81Zm-.15,1.68a5.06,5.06,0,0,0-2.85.81,5.57,5.57,0,0,0-1.93,2.22,7.15,7.15,0,0,0-.71,3.24,7.35,7.35,0,0,0,.71,3.25,5.62,5.62,0,0,0,1.93,2.28,5,5,0,0,0,2.85.83,4.83,4.83,0,0,0,2.81-.84,5.91,5.91,0,0,0,1.93-2.3,7.15,7.15,0,0,0,.72-3.22,7,7,0,0,0-.72-3.24,5.73,5.73,0,0,0-1.93-2.22A5,5,0,0,0,1284.6,327.49Z" transform="translate(0 -23.32)"/><path d="M1302.33,341.8a8.22,8.22,0,0,1-4.08-1,7,7,0,0,1-2.76-2.76,8.34,8.34,0,0,1-1-4.14,8.8,8.8,0,0,1,1-4.35,7.38,7.38,0,0,1,2.61-2.78,6.43,6.43,0,0,1,3.4-1,7.3,7.3,0,0,1,2.57.46,6.4,6.4,0,0,1,2.2,1.38,7.13,7.13,0,0,1,1.56,2.24,7.65,7.65,0,0,1,.63,3.06.8.8,0,0,1-.27.61.89.89,0,0,1-.63.26h-12l-.36-1.62H1307l-.39.36V332a4.57,4.57,0,0,0-.93-2.4,5.1,5.1,0,0,0-1.87-1.5,5.4,5.4,0,0,0-2.3-.51,5.14,5.14,0,0,0-1.84.36A4.83,4.83,0,0,0,1298,329a5.8,5.8,0,0,0-1.25,2,7.48,7.48,0,0,0-.48,2.81A7.08,7.08,0,0,0,1297,337a5.56,5.56,0,0,0,2.07,2.28,6.07,6.07,0,0,0,3.27.84,5.4,5.4,0,0,0,3.35-1.1,5.79,5.79,0,0,0,1.06-1,1,1,0,0,1,.63-.27.74.74,0,0,1,.56.24.76.76,0,0,1,.22.54.82.82,0,0,1-.3.63,8.07,8.07,0,0,1-2.34,1.87A6.41,6.41,0,0,1,1302.33,341.8Z" transform="translate(0 -23.32)"/><path d="M1314.18,340.6a.92.92,0,0,1-.9.9.84.84,0,0,1-.64-.27.89.89,0,0,1-.26-.63V320.2a.91.91,0,0,1,1.55-.63.88.88,0,0,1,.25.63Z" transform="translate(0 -23.32)"/><path d="M1321.08,340.6a.92.92,0,0,1-.9.9.84.84,0,0,1-.64-.27.89.89,0,0,1-.26-.63V320.2a.91.91,0,0,1,1.55-.63.88.88,0,0,1,.25.63Z" transform="translate(0 -23.32)"/></g></g></g></g><path id="Path_37" data-name="Path 37" class="cls-11" d="M143.11,179.61c-11.39,11.58-69.22-.29-76.3-.29s-13.89-9.77-13.89-18.25,9.2-14.47,9.2-31S57.36,107.29,74,88.53s0-27.7,22.22-52.71q22.22-25,44.43,0l.42,11.24-.42-11.24a5.75,5.75,0,0,1,.18-4.6l.24,15.83,2,132.56-2-132.55Z" transform="translate(0 -23.32)"/><path id="Path_38" data-name="Path 38" class="cls-11" d="M140.88,181.37c11.08,10.41,60.42-7,66.6-7.67s11.17-11.06,10.34-19.5c-5.37-8.83-14-13.88-11.08-30-.62-16.51,2.95-23.14-14.47-40.14-16.38-17-2.71-27.55-24.56-50.28q-21.86-22.72-38.81,4.3l.74,11.22-.74-11.22a6.43,6.43,0,0,0-.6-4.55l1.34,15.77,11.25,132-11.25-132Z" transform="translate(0 -23.32)"/><g id="Group_11" data-name="Group 11"><path id="Path_39" data-name="Path 39" class="cls-12" d="M101.49,161.41h80.82a40.55,40.55,0,0,1,40.53,40.53V365.48A40.55,40.55,0,0,1,182.31,406H101.49A40.55,40.55,0,0,1,61,365.48V201.94A40.55,40.55,0,0,1,101.49,161.41Z" transform="translate(0 -23.32)"/><path id="Path_40" data-name="Path 40" class="cls-13" d="M167.27,161.31c0,.28,0,.56,0,.84,0,18-12.19,32.56-27.2,32.56s-27.2-14.59-27.2-32.56c0-.28,0-.56,0-.84Z" transform="translate(0 -23.32)"/></g><path id="Path_41" data-name="Path 41" class="cls-13" d="M310.88,193.79c2.54-10,11.08-16.35,19.07-14.08S342.36,192,339.82,202s-11.08,16.34-19.06,14.08S308.35,203.82,310.88,193.79Z" transform="translate(0 -23.32)"/><path id="Path_42" data-name="Path 42" class="cls-13" d="M.71,388.61c2.54-10,11.08-16.34,19.07-14.07s12.41,12.26,9.88,22.3-11.08,16.34-19.07,14.07S-1.82,398.65.71,388.61Z" transform="translate(0 -23.32)"/><path id="Path_43" data-name="Path 43" class="cls-12" d="M8.53,376.77l21.36,5.3,34.68-85.32L62.9,194.66Z" transform="translate(0 -23.32)"/><path id="Path_44" data-name="Path 44" class="cls-12" d="M219.93,189.22c17.18,23.72,32.85,49.61,46.82,55.38,2.08.86,5.34.65,9.78-.66l34.74-42.36L331,213.27Q293.38,277,276.73,277.7c-16.64.66-40.57-6.84-51.6-18.09Q214.11,248.34,219.93,189.22Z" transform="translate(0 -23.32)"/><ellipse id="Ellipse_14" data-name="Ellipse 14" class="cls-13" cx="140.86" cy="77.87" rx="42.45" ry="54.5"/><rect id="Rectangle_25" data-name="Rectangle 25" class="cls-13" x="126.61" y="115.44" width="30.59" height="30.28"/><g id="Group_12" data-name="Group 12"><path id="Path_45" data-name="Path 45" class="cls-14" d="M347.55,124.35l25.88,15.84a3.38,3.38,0,0,1,1.18,4.44l-30.38,55.8a3,3,0,0,1-4,1.24l-.18-.1-25.88-15.84a3.39,3.39,0,0,1-1.18-4.45l30.38-55.8a3,3,0,0,1,4-1.24Z" transform="translate(0 -23.32)"/><path id="Path_46" data-name="Path 46" class="cls-15" d="M356.87,134.53l4.7,2.88a1.12,1.12,0,0,1,.4,1.47l-.05.09a1,1,0,0,1-1.33.41l-.07,0-4.7-2.88a1.11,1.11,0,0,1-.39-1.47l0-.09a1,1,0,0,1,1.34-.41Z" transform="translate(0 -23.32)"/><path id="Path_47" data-name="Path 47" class="cls-15" d="M350.82,131.75a1.1,1.1,0,0,1,1.48-.53l.07,0a1.26,1.26,0,0,1,.37,1.67,1.12,1.12,0,0,1-1.49.54l-.06,0A1.26,1.26,0,0,1,350.82,131.75Z" transform="translate(0 -23.32)"/><path id="Path_48" data-name="Path 48" class="cls-15" d="M327,188a2.81,2.81,0,0,1,3.74-1.34l.16.08a3.19,3.19,0,0,1,.93,4.22,2.8,2.8,0,0,1-3.74,1.33l-.16-.08A3.16,3.16,0,0,1,327,188Z" transform="translate(0 -23.32)"/><rect id="Rectangle_26" data-name="Rectangle 26" class="cls-15" x="316.54" y="146.23" width="53.77" height="31.37" transform="translate(34.1 358.76) rotate(-60.68)"/></g><ellipse id="Ellipse_15" data-name="Ellipse 15" class="cls-15" cx="137.32" cy="74.13" rx="3.68" ry="3.9"/><ellipse id="Ellipse_16" data-name="Ellipse 16" class="cls-15" cx="167.61" cy="74.14" rx="3.61" ry="3.83"/><path id="Path_49" data-name="Path 49" class="cls-16" d="M143.1,125.71a9.82,9.82,0,0,0,19.63,0Z" transform="translate(0 -23.32)"/><g id="Group_13" data-name="Group 13"><path id="Path_50" data-name="Path 50" class="cls-17" d="M160.06,112.62c-.18,2.24-1.71,4-3.56,4s-3.39-1.75-3.57-4Z" transform="translate(0 -23.32)"/></g><path id="Path_51" data-name="Path 51" class="cls-11" d="M91.55,108q41.63-30.89,48.27-46.77t15.26-15.3L124,36.49q-25.8,23.84-30,39.72A88.16,88.16,0,0,0,91.55,108Z" transform="translate(0 -23.32)"/><path id="Path_52" data-name="Path 52" class="cls-18" d="M723.12,299q-144.93,77-328.7,2" transform="translate(0 -23.32)"/><path id="Path_53" data-name="Path 53" d="M731.35,126l10.94-21.22,23.14,25.37Z" transform="translate(0 -23.32)"/><path id="Path_54" data-name="Path 54" d="M1132.31,272.84v23.87l-32.19-11.93Z" transform="translate(0 -23.32)"/><g class="cls-19"><g id="Group_14" data-name="Group 14"><g id="När_går_bussen_" data-name="När går bussen " class="cls-8"><g class="cls-8"><path d="M466.45,32.89a.78.78,0,0,1,.61.24.85.85,0,0,1,.23.6v19.2a.89.89,0,0,1-.29.7.93.93,0,0,1-.64.26,1.18,1.18,0,0,1-.39-.08.71.71,0,0,1-.33-.22l-13.38-18,.51-.27V53.08a.78.78,0,0,1-.24.57.9.9,0,0,1-1.22,0,.85.85,0,0,1-.22-.57V33.79a.84.84,0,0,1,.27-.68.91.91,0,0,1,.6-.22,1.15,1.15,0,0,1,.39.07.66.66,0,0,1,.33.26L465.91,51l-.3.54V33.73a.76.76,0,0,1,.26-.6A.8.8,0,0,1,466.45,32.89Z" transform="translate(0 -23.32)"/><path d="M484.93,38.56a.84.84,0,0,1,.64.27.93.93,0,0,1,.26.66V53a.92.92,0,0,1-.9.9.84.84,0,0,1-.66-.27A.92.92,0,0,1,484,53V49.42l.51-.24a3.62,3.62,0,0,1-.47,1.71,6.17,6.17,0,0,1-1.27,1.62,6.63,6.63,0,0,1-1.9,1.21,6.1,6.1,0,0,1-2.39.47,6.42,6.42,0,0,1-3.61-1,7.07,7.07,0,0,1-2.52-2.88,8.94,8.94,0,0,1-.92-4.11,8.82,8.82,0,0,1,.93-4.13,7.2,7.2,0,0,1,2.52-2.8,6.75,6.75,0,0,1,6-.57,6.26,6.26,0,0,1,2,1.23,5.85,5.85,0,0,1,1.32,1.78,4.8,4.8,0,0,1,.48,2.09L484,43.3V39.49a1,1,0,0,1,.24-.66A.84.84,0,0,1,484.93,38.56Zm-6.24,13.95a5,5,0,0,0,2.82-.83,5.62,5.62,0,0,0,1.93-2.28,7.35,7.35,0,0,0,.71-3.25,7,7,0,0,0-.71-3.18,5.8,5.8,0,0,0-1.93-2.25,4.88,4.88,0,0,0-2.82-.84,5,5,0,0,0-2.81.81,5.45,5.45,0,0,0-1.94,2.22,7,7,0,0,0-.71,3.24,7.48,7.48,0,0,0,.69,3.25,5.47,5.47,0,0,0,1.93,2.28A5,5,0,0,0,478.69,52.51ZM476,36.13a1.25,1.25,0,0,1-.92-.32,1.22,1.22,0,0,1-.31-.88v-.3a1.18,1.18,0,0,1,.33-.89,1.49,1.49,0,0,1,1.82,0,1.21,1.21,0,0,1,.31.89v.3a1.16,1.16,0,0,1-.33.9A1.29,1.29,0,0,1,476,36.13Zm5.16,0a1.27,1.27,0,0,1-.92-.32,1.18,1.18,0,0,1-.31-.88v-.3a1.18,1.18,0,0,1,.33-.89,1.29,1.29,0,0,1,.93-.31,1.18,1.18,0,0,1,.88.31,1.21,1.21,0,0,1,.32.89v.3a1.16,1.16,0,0,1-.33.9A1.29,1.29,0,0,1,481.18,36.13Z" transform="translate(0 -23.32)"/><path d="M491.44,53.89a.84.84,0,0,1-.66-.27.92.92,0,0,1-.24-.63V39.55a.88.88,0,0,1,.25-.63.86.86,0,0,1,.65-.27.84.84,0,0,1,.64.27.89.89,0,0,1,.26.63v4.5l-.45.09a6.89,6.89,0,0,1,.52-2.09,7.13,7.13,0,0,1,1.19-1.9,6,6,0,0,1,1.78-1.41,5,5,0,0,1,2.33-.54,2.57,2.57,0,0,1,1.05.22.77.77,0,0,1,.51.74.93.93,0,0,1-.24.69.78.78,0,0,1-.57.24,1.39,1.39,0,0,1-.59-.15,1.91,1.91,0,0,0-.82-.15,3.28,3.28,0,0,0-1.68.49,5.81,5.81,0,0,0-1.53,1.34,6.87,6.87,0,0,0-1.1,1.87,5.7,5.7,0,0,0-.4,2.09V53a.92.92,0,0,1-.9.9Z" transform="translate(0 -23.32)"/><path d="M516.55,38.2a6.45,6.45,0,0,1,2.46.46,7.18,7.18,0,0,1,2,1.2,6.19,6.19,0,0,1,1.34,1.56,3.16,3.16,0,0,1,.48,1.58l-.48-.72V39.49a.92.92,0,0,1,.25-.66.86.86,0,0,1,.65-.27.84.84,0,0,1,.64.27.93.93,0,0,1,.26.66v13a7.74,7.74,0,0,1-1,4.05,6.48,6.48,0,0,1-2.69,2.5,8.42,8.42,0,0,1-3.85.86,9.73,9.73,0,0,1-2.21-.27,8.78,8.78,0,0,1-2-.69c-.55-.28-.86-.57-.94-.87a.8.8,0,0,1-.2-.53.57.57,0,0,1,.26-.43.54.54,0,0,1,.61-.05c.23.11.57.26,1,.44l.79.27a9.15,9.15,0,0,0,1.23.31,7.77,7.77,0,0,0,1.46.14,5.26,5.26,0,0,0,5.7-5.61V49.72l.33.09a5,5,0,0,1-.9,1.89,6.12,6.12,0,0,1-1.47,1.36,6.87,6.87,0,0,1-3.72,1.13,6.87,6.87,0,0,1-3.74-1,7.43,7.43,0,0,1-2.62-2.85,9.26,9.26,0,0,1,0-8.21,7.34,7.34,0,0,1,2.61-2.85A6.85,6.85,0,0,1,516.55,38.2Zm.18,1.68a5.37,5.37,0,0,0-2.93.82,5.69,5.69,0,0,0-2,2.25,7,7,0,0,0-.73,3.23,7,7,0,0,0,.73,3.24,5.65,5.65,0,0,0,2,2.26,5.66,5.66,0,0,0,5.87,0,5.74,5.74,0,0,0,2-2.24,7.57,7.57,0,0,0,0-6.57,5.62,5.62,0,0,0-2-2.22A5.49,5.49,0,0,0,516.73,39.88Z" transform="translate(0 -23.32)"/><path d="M541.18,38.56a.84.84,0,0,1,.64.27.93.93,0,0,1,.26.66V53a.92.92,0,0,1-.9.9.84.84,0,0,1-.66-.27.92.92,0,0,1-.24-.63V49.42l.51-.24a3.62,3.62,0,0,1-.47,1.71,6.17,6.17,0,0,1-1.27,1.62,6.55,6.55,0,0,1-1.91,1.21,6,6,0,0,1-2.38.47,6.47,6.47,0,0,1-3.62-1,7.22,7.22,0,0,1-2.52-2.88,9.06,9.06,0,0,1-.91-4.11,8.82,8.82,0,0,1,.93-4.13,7.2,7.2,0,0,1,2.52-2.8,6.73,6.73,0,0,1,6-.57,6.31,6.31,0,0,1,2,1.23,5.85,5.85,0,0,1,1.32,1.78,4.8,4.8,0,0,1,.48,2.09l-.63-.45V39.49a1,1,0,0,1,.24-.66A.84.84,0,0,1,541.18,38.56Zm-6.24,13.95a5,5,0,0,0,2.82-.83,5.62,5.62,0,0,0,1.93-2.28,7.35,7.35,0,0,0,.71-3.25,7,7,0,0,0-.71-3.18,5.8,5.8,0,0,0-1.93-2.25,4.88,4.88,0,0,0-2.82-.84,5,5,0,0,0-2.81.81,5.54,5.54,0,0,0-2,2.22,7.15,7.15,0,0,0-.7,3.24,7.48,7.48,0,0,0,.69,3.25,5.47,5.47,0,0,0,1.93,2.28A5,5,0,0,0,534.94,52.51Zm.18-15.27a3.1,3.1,0,0,1-1.52-.39,3,3,0,0,1-1.12-1.07,2.74,2.74,0,0,1-.42-1.48,2.77,2.77,0,0,1,.42-1.49,3,3,0,0,1,1.12-1.06,3.1,3.1,0,0,1,1.52-.39,3.06,3.06,0,0,1,1.51.39,3,3,0,0,1,1.13,1.06,2.77,2.77,0,0,1,.42,1.49,2.74,2.74,0,0,1-.42,1.48,3.12,3.12,0,0,1-2.64,1.46Zm0-1.26a1.71,1.71,0,0,0,1.23-.5,1.58,1.58,0,0,0,.51-1.18,1.61,1.61,0,0,0-.51-1.23,1.73,1.73,0,0,0-1.23-.48,1.66,1.66,0,0,0-1.2.49,1.64,1.64,0,0,0-.51,1.22,1.58,1.58,0,0,0,.51,1.18A1.67,1.67,0,0,0,535.12,36Z" transform="translate(0 -23.32)"/><path d="M547.69,53.89a.84.84,0,0,1-.66-.27.92.92,0,0,1-.24-.63V39.55a.88.88,0,0,1,.25-.63.86.86,0,0,1,.65-.27.84.84,0,0,1,.64.27.89.89,0,0,1,.26.63v4.5l-.45.09a6.89,6.89,0,0,1,.52-2.09,7.13,7.13,0,0,1,1.19-1.9,6,6,0,0,1,1.78-1.41A5,5,0,0,1,554,38.2a2.57,2.57,0,0,1,1,.22.77.77,0,0,1,.51.74.93.93,0,0,1-.24.69.78.78,0,0,1-.57.24,1.39,1.39,0,0,1-.59-.15,1.91,1.91,0,0,0-.82-.15,3.28,3.28,0,0,0-1.68.49,5.81,5.81,0,0,0-1.53,1.34,6.87,6.87,0,0,0-1.1,1.87,5.7,5.7,0,0,0-.4,2.09V53a.92.92,0,0,1-.9.9Z" transform="translate(0 -23.32)"/><path d="M573.82,38.2a6.49,6.49,0,0,1,3.61,1,7.26,7.26,0,0,1,2.51,2.8,8.82,8.82,0,0,1,.93,4.13,8.94,8.94,0,0,1-.93,4.11,7.37,7.37,0,0,1-2.52,2.88,6.34,6.34,0,0,1-3.57,1,6,6,0,0,1-2-.33,6.91,6.91,0,0,1-3.1-2.19,6.66,6.66,0,0,1-1-1.62l.54-.39v3.39a.89.89,0,0,1-.9.9.89.89,0,0,1-.65-.26.86.86,0,0,1-.25-.64V32.62a.92.92,0,0,1,.24-.65,1,1,0,0,1,1.3,0,.89.89,0,0,1,.26.65V42.67l-.42-.24a5.61,5.61,0,0,1,.88-1.7,6.65,6.65,0,0,1,1.37-1.33,6.33,6.33,0,0,1,1.71-.89A6,6,0,0,1,573.82,38.2Zm-.15,1.68a5.06,5.06,0,0,0-2.85.81,5.6,5.6,0,0,0-1.94,2.22,7.15,7.15,0,0,0-.7,3.24,7.34,7.34,0,0,0,.7,3.25,5.64,5.64,0,0,0,1.94,2.28,5,5,0,0,0,2.85.83,4.8,4.8,0,0,0,2.8-.84,5.94,5.94,0,0,0,1.94-2.3,7.15,7.15,0,0,0,.72-3.22,7,7,0,0,0-.72-3.24,5.76,5.76,0,0,0-1.94-2.22A4.92,4.92,0,0,0,573.67,39.88Z" transform="translate(0 -23.32)"/><path d="M596.05,38.65a.84.84,0,0,1,.64.27.89.89,0,0,1,.26.63V48a5.88,5.88,0,0,1-1.68,4.53,6.39,6.39,0,0,1-4.53,1.56,6.31,6.31,0,0,1-4.49-1.56A5.91,5.91,0,0,1,584.59,48V39.55a.88.88,0,0,1,.25-.63.86.86,0,0,1,.65-.27.84.84,0,0,1,.64.27.89.89,0,0,1,.26.63V48a4,4,0,0,0,4.35,4.41A4.48,4.48,0,0,0,594,51.29,4.34,4.34,0,0,0,595.15,48V39.55a.92.92,0,0,1,.24-.63A.84.84,0,0,1,596.05,38.65Z" transform="translate(0 -23.32)"/><path d="M600.79,51.46a1.2,1.2,0,0,1-.23-.71.66.66,0,0,1,.38-.55.7.7,0,0,1,.55-.18,1,1,0,0,1,.59.3A6.36,6.36,0,0,0,604,52a5.56,5.56,0,0,0,2.75.65,5,5,0,0,0,1.66-.29,3.29,3.29,0,0,0,1.37-.87,2.33,2.33,0,0,0,0-3,3.76,3.76,0,0,0-1.4-.9,15.35,15.35,0,0,0-1.81-.57c-.68-.18-1.34-.39-2-.62a7,7,0,0,1-1.7-.87,4.2,4.2,0,0,1-1.18-1.27,3.5,3.5,0,0,1-.45-1.83,3.71,3.71,0,0,1,.69-2.22,4.59,4.59,0,0,1,1.87-1.5,6.43,6.43,0,0,1,2.69-.54,7.41,7.41,0,0,1,1.62.19,6.75,6.75,0,0,1,1.71.65,5.14,5.14,0,0,1,1.5,1.23.84.84,0,0,1,.27.61.82.82,0,0,1-.3.62.91.91,0,0,1-.56.18.66.66,0,0,1-.52-.24,4.74,4.74,0,0,0-1.71-1.23,5.4,5.4,0,0,0-2.13-.42,4.67,4.67,0,0,0-1.64.28,3.15,3.15,0,0,0-1.27.86,2.16,2.16,0,0,0-.51,1.5,2.09,2.09,0,0,0,.61,1.41,4.38,4.38,0,0,0,1.47.9,18.58,18.58,0,0,0,2.06.66A17.16,17.16,0,0,1,609,46a6.4,6.4,0,0,1,1.56.82A3.72,3.72,0,0,1,611.63,48a4,4,0,0,1,.41,1.89,3.65,3.65,0,0,1-.74,2.28,4.65,4.65,0,0,1-2,1.47,7.06,7.06,0,0,1-2.73.51,8.11,8.11,0,0,1-3.14-.63A6.73,6.73,0,0,1,600.79,51.46Z" transform="translate(0 -23.32)"/><path d="M614.86,51.46a1.2,1.2,0,0,1-.23-.71.66.66,0,0,1,.38-.55.7.7,0,0,1,.55-.18,1,1,0,0,1,.59.3,6.36,6.36,0,0,0,2,1.69,5.56,5.56,0,0,0,2.75.65,5,5,0,0,0,1.66-.29,3.29,3.29,0,0,0,1.37-.87,2.33,2.33,0,0,0,0-3,3.76,3.76,0,0,0-1.4-.9,15.35,15.35,0,0,0-1.81-.57c-.68-.18-1.34-.39-2-.62a7,7,0,0,1-1.7-.87,4.2,4.2,0,0,1-1.18-1.27,3.5,3.5,0,0,1-.45-1.83,3.71,3.71,0,0,1,.69-2.22,4.59,4.59,0,0,1,1.87-1.5,6.43,6.43,0,0,1,2.69-.54,7.41,7.41,0,0,1,1.62.19A6.75,6.75,0,0,1,624,39a5.14,5.14,0,0,1,1.5,1.23.84.84,0,0,1,.27.61.82.82,0,0,1-.3.62.91.91,0,0,1-.56.18.66.66,0,0,1-.52-.24,4.74,4.74,0,0,0-1.71-1.23,5.4,5.4,0,0,0-2.13-.42,4.67,4.67,0,0,0-1.64.28,3.15,3.15,0,0,0-1.27.86,2.16,2.16,0,0,0-.51,1.5,2.09,2.09,0,0,0,.61,1.41,4.38,4.38,0,0,0,1.47.9,18.58,18.58,0,0,0,2.06.66,17.16,17.16,0,0,1,1.84.57,6.4,6.4,0,0,1,1.56.82A3.72,3.72,0,0,1,625.7,48a4,4,0,0,1,.41,1.89,3.65,3.65,0,0,1-.74,2.28,4.65,4.65,0,0,1-2,1.47,7.06,7.06,0,0,1-2.73.51,8.11,8.11,0,0,1-3.14-.63A6.73,6.73,0,0,1,614.86,51.46Z" transform="translate(0 -23.32)"/><path d="M636.61,54.19a8.22,8.22,0,0,1-4.08-1,7,7,0,0,1-2.76-2.76,8.34,8.34,0,0,1-1-4.14,8.8,8.8,0,0,1,1-4.35,7.38,7.38,0,0,1,2.61-2.78,6.46,6.46,0,0,1,3.41-1,7.24,7.24,0,0,1,2.56.46A6.44,6.44,0,0,1,640.57,40a7.13,7.13,0,0,1,1.56,2.24,7.65,7.65,0,0,1,.63,3.06.8.8,0,0,1-.27.61.89.89,0,0,1-.63.26h-12l-.36-1.62h11.82l-.39.36v-.6A4.57,4.57,0,0,0,640,42a5.13,5.13,0,0,0-1.88-1.5,5.35,5.35,0,0,0-2.29-.51,5.19,5.19,0,0,0-1.85.36,4.83,4.83,0,0,0-1.71,1.12A5.78,5.78,0,0,0,631,43.37a7.48,7.48,0,0,0-.48,2.81,7.08,7.08,0,0,0,.72,3.21,5.56,5.56,0,0,0,2.07,2.28,6.07,6.07,0,0,0,3.27.84,5.5,5.5,0,0,0,1.86-.3,5.39,5.39,0,0,0,1.48-.8,5.86,5.86,0,0,0,1.07-1,1,1,0,0,1,.63-.27.72.72,0,0,1,.55.24.78.78,0,0,1,.23.54.82.82,0,0,1-.3.63,8.07,8.07,0,0,1-2.34,1.87A6.41,6.41,0,0,1,636.61,54.19Z" transform="translate(0 -23.32)"/><path d="M653.71,38.2a5.58,5.58,0,0,1,3.16.79,4.46,4.46,0,0,1,1.71,2.16,8.36,8.36,0,0,1,.53,3V53a.92.92,0,0,1-.9.9.84.84,0,0,1-.66-.27.92.92,0,0,1-.24-.63V44.26a5.93,5.93,0,0,0-.39-2.19,3.38,3.38,0,0,0-1.28-1.59,4.05,4.05,0,0,0-2.32-.6A5.41,5.41,0,0,0,649,42.07a3.64,3.64,0,0,0-.72,2.19V53a.92.92,0,0,1-.9.9.84.84,0,0,1-.66-.27.92.92,0,0,1-.24-.63V39.55a.88.88,0,0,1,.25-.63.86.86,0,0,1,.65-.27.84.84,0,0,1,.64.27.89.89,0,0,1,.26.63v2.52l-.69,1.08a3.9,3.9,0,0,1,.61-1.85,6.49,6.49,0,0,1,1.43-1.59,7,7,0,0,1,1.93-1.11A6,6,0,0,1,653.71,38.2Z" transform="translate(0 -23.32)"/><path d="M667.48,43.81a.9.9,0,0,1,.27-.66.86.86,0,0,1,.63-.27,5.77,5.77,0,0,0,2.46-.69,4.59,4.59,0,0,0,1.71-1.62,4.42,4.42,0,0,0,.63-2.37,4.91,4.91,0,0,0-.59-2.45A4.29,4.29,0,0,0,671,34.13a4.34,4.34,0,0,0-2.25-.58,4.88,4.88,0,0,0-2.31.57,5.48,5.48,0,0,0-1.8,1.5,1.41,1.41,0,0,1-.56.34.74.74,0,0,1-.67-.13.9.9,0,0,1-.42-.62.85.85,0,0,1,.21-.7,7.32,7.32,0,0,1,2.43-1.95,6.77,6.77,0,0,1,3.12-.75,6.46,6.46,0,0,1,3.16.78,5.83,5.83,0,0,1,2.27,2.22A6.61,6.61,0,0,1,675,38.2a5.76,5.76,0,0,1-.48,2.31,6.6,6.6,0,0,1-1.32,2,6.38,6.38,0,0,1-4.35,1.95q-.09,0,.06,0a.6.6,0,0,0,.3-.18v3.15a.89.89,0,0,1-.9.9.89.89,0,0,1-.65-.26.77.77,0,0,1-.22-.64Zm.9,10.08a1,1,0,0,1-.8-.32,1.17,1.17,0,0,1-.28-.82v-.66a1.17,1.17,0,0,1,.28-.84,1.06,1.06,0,0,1,.8-.3h.18a1,1,0,0,1,.79.3,1.26,1.26,0,0,1,.26.84v.66a1.26,1.26,0,0,1-.26.82,1,1,0,0,1-.79.32Z" transform="translate(0 -23.32)"/></g></g></g></g><path id="Path_55" data-name="Path 55" class="cls-18" d="M409.49,119.58q147-77,333.47-2" transform="translate(0 -23.32)"/><g id="Group_15" data-name="Group 15"><path id="Path_56" data-name="Path 56" class="cls-18" d="M1199.23,184.66Q1345.41,178,1346.72,236q.57,25-39,39.06-52.26,18.54-173.94,9.12" transform="translate(0 -23.32)"/></g></g></g></g></g></svg>