<?xml version="1.0" encoding="UTF-8" standalone="no"?><!-- Generator: Gravit.io --><svg xmlns="http://www.w3.org/2000/svg" xmlns:xlink="http://www.w3.org/1999/xlink" style="isolation:isolate" viewBox="-261 43.065 1627.667 388.059" width="1627.667pt" height="388.059pt"><defs><clipPath id="_clipPath_HdbI7RYmgPZJi9GSehtzBE2PHoVlveV6"><rect x="-261" y="43.065" width="1627.667" height="388.059"/></clipPath></defs><g clip-path="url(#_clipPath_HdbI7RYmgPZJi9GSehtzBE2PHoVlveV6)"><path d="M 1197.628 107.55 L 1360.512 107.55 C 1363.91 107.55 1366.67 110.309 1366.67 113.708 L 1366.67 413.722 C 1366.67 417.121 1363.91 419.88 1360.512 419.88 L 1197.628 419.88 C 1194.23 419.88 1191.47 417.121 1191.47 413.722 L 1191.47 113.708 C 1191.47 110.309 1194.23 107.55 1197.628 107.55 Z" style="stroke:none;fill:#6E8A95;stroke-miterlimit:10;"/><rect x="1214.716" y="133.408" width="129.86" height="22.987" transform="matrix(1,0,0,1,0,0)" fill="rgb(72,93,101)"/><rect x="1214.716" y="171.387" width="129.86" height="22.987" transform="matrix(1,0,0,1,0,0)" fill="rgb(72,93,101)"/><rect x="1214.716" y="209.366" width="129.86" height="22.987" transform="matrix(1,0,0,1,0,0)" fill="rgb(72,93,101)"/><rect x="1215.824" y="247.345" width="129.86" height="22.987" transform="matrix(1,0,0,1,0,0)" fill="rgb(72,93,101)"/><ellipse vector-effect="non-scaling-stroke" cx="1333.698614985667" cy="144.50775131516284" rx="7.496168981814208" ry="8.192484757440297" fill="rgb(119,238,45)"/><ellipse vector-effect="non-scaling-stroke" cx="1333.698614985667" cy="182.88068361711146" rx="7.496168981814208" ry="8.192484757440297" fill="rgb(119,238,45)"/><ellipse vector-effect="non-scaling-stroke" cx="1333.698614985667" cy="220.85989206750116" rx="7.496168981814208" ry="8.192484757440297" fill="rgb(119,238,45)"/><ellipse vector-effect="non-scaling-stroke" cx="1333.698614985667" cy="258.8391005178903" rx="7.496168981814208" ry="8.192484757440297" fill="rgb(119,238,45)"/><ellipse vector-effect="non-scaling-stroke" cx="635.3654030621041" cy="221.13979475838323" rx="64.26099632348803" ry="81.5867644553532" fill="rgb(144,184,204)"/><path d=" M 508.37 213.191 C 507.715 186.381 528.644 164.076 555.078 163.411 C 581.512 162.747 603.506 183.974 604.161 210.783 C 604.817 237.593 583.888 259.898 557.454 260.563 C 531.02 261.227 509.026 240.001 508.37 213.191 Z " fill="rgb(144,184,204)"/><path d=" M 653.743 200.01 C 653.087 173.201 674.016 150.895 700.45 150.231 C 726.884 149.566 748.878 170.793 749.534 197.602 C 750.189 224.412 729.26 246.717 702.826 247.382 C 676.392 248.046 654.398 226.82 653.743 200.01 Z " fill="rgb(144,184,204)"/><path d=" M 475.384 268.661 C 474.681 239.92 506.59 215.77 546.595 214.764 C 586.601 213.759 619.651 236.276 620.354 265.016 C 621.057 293.757 589.148 317.907 549.142 318.913 C 509.137 319.919 476.087 297.401 475.384 268.661 Z " fill="rgb(144,184,204)"/><path d=" M 699.757 281.859 C 699.224 260.075 721.92 241.808 750.409 241.092 C 778.897 240.376 802.458 257.48 802.991 279.264 C 803.524 301.048 780.827 319.315 752.339 320.031 C 723.851 320.747 700.29 303.643 699.757 281.859 Z " fill="rgb(144,184,204)"/><path d=" M 649.018 249.049 C 642.11 219.902 668.17 188.524 707.176 179.022 C 746.182 169.519 783.458 185.469 790.365 214.616 C 797.273 243.764 771.213 275.142 732.207 284.644 C 693.201 294.146 655.925 278.197 649.018 249.049 Z " fill="rgb(144,184,204)"/><rect x="532.548" y="270.241" width="232.096" height="48.493" transform="matrix(1,0,0,1,0,0)" fill="rgb(144,184,204)"/><g clip-path="url(#_clipPath_vl764PbvWascUibQsWDb4KpWd47wdPVc)"><text transform="matrix(1,0,0,1,604.176,255.136)" style="font-family:'Open Sans';font-weight:700;font-size:40px;font-style:normal;fill:#000000;stroke:none;">API</text></g><defs><clipPath id="_clipPath_vl764PbvWascUibQsWDb4KpWd47wdPVc"><rect x="0" y="0" width="68" height="54.473" transform="matrix(1,0,0,1,604.176,212.382)"/></clipPath></defs><rect x="166" y="186" width="239.459" height="29.183" transform="matrix(1,0,0,1,0,0)" fill="rgb(185,185,185)"/><rect x="174.604" y="265.075" width="239.459" height="29.183" transform="matrix(1,0,0,1,0,0)" fill="rgb(185,185,185)"/><polygon points="393.097,229.924,393.097,170.883,447.621,200.404" fill="rgb(185,185,185)"/><polygon points="897.262,258.104,897.262,317.146,842.738,287.625" fill="rgb(185,185,185)"/><polygon points="175.62,247.918,175.62,310.5,120.355,279.209" fill="rgb(185,185,185)"/><g clip-path="url(#_clipPath_jv2s6VbWcj1l4kmhFFE2zPdcMg9n5Fjv)"><text transform="matrix(1,0,0,1,200.326,208.136)" style="font-family:'Open Sans';font-weight:700;font-size:20px;font-style:normal;fill:#000000;stroke:none;">När går bussen?</text></g><defs><clipPath id="_clipPath_jv2s6VbWcj1l4kmhFFE2zPdcMg9n5Fjv"><rect x="0" y="0" width="163" height="27.236" transform="matrix(1,0,0,1,200.326,186.759)"/></clipPath></defs><g clip-path="url(#_clipPath_BQDekaiC3w30bhjOciMlmkEMKO28gnjX)"><text transform="matrix(1,0,0,1,190.962,288.092)" style="font-family:'open sans';font-weight:700;font-size:20px;font-style:normal;fill:#000000;stroke:none;">Returnerar tidtabell</text></g><defs><clipPath id="_clipPath_BQDekaiC3w30bhjOciMlmkEMKO28gnjX"><rect x="0" y="0" width="204" height="27.236" transform="matrix(1,0,0,1,190.962,266.715)"/></clipPath></defs><path d=" M -117.893 199.36 C -129.278 210.941 -187.11 199.074 -194.194 199.074 C -201.336 199.074 -208.08 189.304 -208.08 180.817 C -208.08 172.331 -198.876 166.345 -198.876 149.801 C -198.876 133.257 -203.637 127.039 -186.973 108.279 C -170.31 89.519 -186.973 80.585 -164.756 55.572 Q -142.538 30.559 -120.32 55.572 L -119.904 66.806 L -120.32 55.572 C -120.906 54.282 -120.85 52.666 -120.144 50.976 L -119.904 66.806 L -117.893 199.36 L -119.904 66.806 L -117.893 199.36 Z " fill="rgb(255,153,0)"/><path d=" M -120.117 201.12 C -109.039 211.535 -59.698 194.134 -53.512 193.448 C -47.276 192.756 -42.344 182.386 -43.176 173.945 C -48.544 165.121 -57.161 160.068 -54.256 143.989 C -54.873 127.477 -51.309 120.849 -68.723 103.844 C -85.115 86.799 -71.439 76.3 -93.294 53.574 Q -115.15 30.848 -132.099 57.877 L -131.361 69.09 L -132.099 57.877 C -131.714 56.537 -131.921 54.935 -132.704 53.323 L -131.361 69.09 L -120.117 201.12 L -131.361 69.09 L -120.117 201.12 Z " fill="rgb(255,153,0)"/><g><path d="M -159.506 181.16 L -78.694 181.16 C -56.323 181.16 -38.16 199.323 -38.16 221.694 L -38.16 385.226 C -38.16 407.597 -56.323 425.76 -78.694 425.76 L -159.506 425.76 C -181.877 425.76 -200.04 407.597 -200.04 385.226 L -200.04 221.694 C -200.04 199.323 -181.877 181.16 -159.506 181.16 Z" style="stroke:none;fill:#140388;stroke-miterlimit:10;"/><path d=" M -93.733 181.06 C -93.724 181.34 -93.721 181.621 -93.721 181.904 C -93.721 199.874 -105.909 214.464 -120.922 214.464 C -135.935 214.464 -148.123 199.874 -148.123 181.904 C -148.123 181.621 -148.12 181.34 -148.111 181.06 L -93.733 181.06 L -93.733 181.06 Z " fill="rgb(236,203,182)"/></g><path d=" M 49.883 213.538 C 52.419 203.501 60.962 197.194 68.949 199.463 C 76.935 201.732 81.36 211.724 78.824 221.761 C 76.288 231.799 67.744 238.105 59.758 235.836 C 51.771 233.567 47.346 223.575 49.883 213.538 Z " fill="rgb(236,203,182)"/><path d=" M -260.285 408.364 C -257.749 398.327 -249.205 392.02 -241.219 394.289 C -233.232 396.558 -228.807 406.55 -231.343 416.587 C -233.88 426.625 -242.423 432.931 -250.41 430.662 C -258.396 428.393 -262.821 418.401 -260.285 408.364 Z " fill="rgb(236,203,182)"/><path d=" M -252.472 396.516 L -231.11 401.811 L -196.431 316.497 L -198.096 214.414 L -252.472 396.516 Z " fill="rgb(20,3,136)"/><path d=" M -41.07 208.971 C -23.894 232.689 -8.216 258.584 5.746 264.352 C 7.826 265.212 11.094 265 15.526 263.69 L 50.274 221.327 L 70.041 233.021 Q 32.379 296.786 15.734 297.448 C -0.912 298.11 -24.841 290.608 -35.868 279.356 Q -46.896 268.103 -41.07 208.971 Z " fill="rgb(20,3,136)"/><ellipse vector-effect="non-scaling-stroke" cx="-120.13803110543273" cy="120.93540728641628" rx="42.446880968093524" ry="54.49830857159818" fill="rgb(236,203,182)"/><rect x="-134.391" y="158.51" width="30.587" height="30.283" transform="matrix(1,0,0,1,0,0)" fill="rgb(236,203,182)"/><g><path d="M 86.553 144.095 L 112.425 159.935 C 113.918 160.849 114.451 162.84 113.614 164.378 L 83.229 220.185 C 82.392 221.723 80.5 222.229 79.007 221.315 L 53.135 205.475 C 51.642 204.561 51.109 202.57 51.946 201.032 L 82.331 145.225 C 83.168 143.687 85.06 143.181 86.553 144.095 Z" style="stroke:none;fill:#A2A2A2;stroke-miterlimit:10;"/><path d="M 95.874 154.281 L 100.576 157.16 C 101.07 157.463 101.246 158.121 100.969 158.63 L 100.922 158.716 C 100.645 159.224 100.02 159.392 99.526 159.089 L 94.824 156.21 C 94.33 155.907 94.154 155.249 94.431 154.74 L 94.478 154.654 C 94.755 154.146 95.38 153.978 95.874 154.281 Z" style="stroke:none;fill:#575757;stroke-miterlimit:10;"/><path d=" M 89.82 151.504 C 90.146 150.905 90.841 150.682 91.37 151.006 C 91.899 151.33 92.064 152.08 91.738 152.679 C 91.412 153.277 90.718 153.5 90.188 153.176 C 89.659 152.852 89.494 152.103 89.82 151.504 Z " fill="rgb(87,87,87)"/><path d=" M 66.003 207.788 C 66.824 206.28 68.573 205.718 69.907 206.534 C 71.24 207.35 71.655 209.238 70.834 210.746 C 70.013 212.254 68.264 212.816 66.931 212 C 65.598 211.184 65.182 209.296 66.003 207.788 Z " fill="rgb(87,87,87)"/><rect x="66.98" y="155.811" width="32.065" height="52.61" transform="matrix(0.853,0.522,-0.479,0.879,99.411,-21.38)" fill="rgb(87,87,87)"/></g><ellipse vector-effect="non-scaling-stroke" cx="-123.6802107754945" cy="117.19316752771411" rx="3.680210775494416" ry="3.902502113098464" fill="rgb(87,87,87)"/><ellipse vector-effect="non-scaling-stroke" cx="-93.3901892529187" cy="117.20615217131623" rx="3.6141475862519314" ry="3.8324485886281963" fill="rgb(87,87,87)"/><path d=" M -117.899 145.459 C -117.399 150.738 -113.193 154.873 -108.084 154.873 C -102.974 154.873 -98.768 150.738 -98.268 145.459 L -117.899 145.459 L -117.899 145.459 Z " fill="rgb(251,149,149)"/><g><path d=" M -100.94 132.367 C -101.122 134.605 -102.648 136.357 -104.503 136.357 C -106.358 136.357 -107.885 134.605 -108.066 132.367 L -100.94 132.367 L -100.94 132.367 Z " fill="rgb(217,164,133)"/></g><path d=" M -169.448 127.734 Q -127.833 96.844 -121.175 80.958 Q -114.517 65.072 -105.916 65.66 L -136.989 56.246 Q -162.79 80.075 -166.951 95.961 Q -171.112 111.848 -169.448 127.734 Z " fill="rgb(255,153,0)"/><rect x="959.534" y="195.565" width="130.635" height="29.786" transform="matrix(-1,0,0,-1,2049.703,420.917)" fill="rgb(185,185,185)"/><rect x="889.375" y="274.954" width="201.102" height="29.429" transform="matrix(-1,0,0,-1,1979.852,579.337)" fill="rgb(185,185,185)"/><path d=" M 1042.477 307.728 C 1042.215 307.739 1041.953 307.744 1041.69 307.747" fill="rgb(156,175,185)"/><path d=" M 1089.116 195.556 C 1118.039 195.622 1141.5 219.983 1141.5 249.98 C 1141.5 279.636 1118.569 303.784 1090.098 304.387" fill="rgb(185,185,185)"/><path d=" M 1088.777 274.95 C 1075.703 274.95 1065.088 263.836 1065.088 250.147 C 1065.088 236.457 1075.703 225.343 1088.777 225.343 C 1101.851 225.343 1112.466 236.457 1112.466 250.147 C 1112.466 263.828 1101.864 274.936 1088.801 274.949" fill="rgb(255,255,255)"/><path d=" M 1041.935 275.884 C 1041.927 275.885 1041.919 275.885 1041.91 275.885" fill="rgb(255,255,255)"/><g clip-path="url(#_clipPath_cuo93MQFep8LVdFPz6AAeaUOIHZFjbnc)"><text transform="matrix(1,0,0,1,919,296.884)" style="font-family:'Open Sans';font-weight:700;font-size:20px;font-style:normal;fill:#000000;stroke:none;">Hämtar tidtabell</text></g><defs><clipPath id="_clipPath_cuo93MQFep8LVdFPz6AAeaUOIHZFjbnc"><rect x="0" y="0" width="169" height="27.236" transform="matrix(1,0,0,1,919,275.507)"/></clipPath></defs></g></svg>