<svg xmlns="http://www.w3.org/2000/svg" xmlns:xlink="http://www.w3.org/1999/xlink" width="1579.39" height="411.374" viewBox="0 0 1579.39 411.374">
  <defs>
    <style>
        @import url('https://fonts.googleapis.com/css2?family=Quicksand');
    </style>
    <clipPath id="clip-path">
      <rect id="Rectangle_28" data-name="Rectangle 28" width="1579.39" height="411.374" transform="translate(-261 19.75)"/>
    </clipPath>
    <clipPath id="clip-path-2">
      <rect id="Rectangle_22" data-name="Rectangle 22" width="68" height="54.473" transform="translate(604.176 212.382)"/>
    </clipPath>
    <clipPath id="clip-path-3">
      <rect id="Rectangle_23" data-name="Rectangle 23" width="304" height="42.951" transform="translate(157.204 372.139)"/>
    </clipPath>
    <clipPath id="clip-path-4">
      <rect id="Rectangle_24" data-name="Rectangle 24" width="253" height="42.951" transform="translate(836.227 329.183)"/>
    </clipPath>
    <clipPath id="clip-path-5">
      <rect id="Rectangle_27" data-name="Rectangle 27" width="243" height="42.951" transform="translate(187.27 41.572)"/>
    </clipPath>
  </defs>
  <g id="APItidtabellexempel" transform="translate(261 -19.75)" clip-path="url(#clip-path)">
    <path id="Path_30" data-name="Path 30" d="M1149.36,113.96h162.87a6.162,6.162,0,0,1,6.16,6.158V420.132a6.162,6.162,0,0,1-6.16,6.158H1149.36a6.162,6.162,0,0,1-6.16-6.158V120.118A6.162,6.162,0,0,1,1149.36,113.96Z" fill="#6e8a95"/>
    <rect id="Rectangle_17" data-name="Rectangle 17" width="129.86" height="22.987" transform="translate(1166.44 139.817)" fill="#485d65"/>
    <rect id="Rectangle_18" data-name="Rectangle 18" width="129.86" height="22.987" transform="translate(1166.44 177.796)" fill="#485d65"/>
    <rect id="Rectangle_19" data-name="Rectangle 19" width="129.86" height="22.987" transform="translate(1166.44 215.775)" fill="#485d65"/>
    <rect id="Rectangle_20" data-name="Rectangle 20" width="129.86" height="22.987" transform="translate(1167.55 253.754)" fill="#485d65"/>
    <ellipse id="Ellipse_9" data-name="Ellipse 9" cx="7.496" cy="8.192" rx="7.496" ry="8.192" transform="translate(1277.934 142.725)" fill="#77ee2d"/>
    <ellipse id="Ellipse_10" data-name="Ellipse 10" cx="7.496" cy="8.192" rx="7.496" ry="8.192" transform="translate(1277.934 181.098)" fill="#77ee2d"/>
    <ellipse id="Ellipse_11" data-name="Ellipse 11" cx="7.496" cy="8.192" rx="7.496" ry="8.192" transform="translate(1277.934 219.077)" fill="#77ee2d"/>
    <ellipse id="Ellipse_12" data-name="Ellipse 12" cx="7.496" cy="8.192" rx="7.496" ry="8.192" transform="translate(1277.934 257.056)" fill="#77ee2d"/>
    <ellipse id="Ellipse_13" data-name="Ellipse 13" cx="64.261" cy="81.587" rx="64.261" ry="81.587" transform="translate(571.104 139.553)" fill="#90b8cc"/>
    <path id="Path_31" data-name="Path 31" d="M508.37,213.191c-.655-26.81,20.274-49.115,46.708-49.78s48.428,20.563,49.083,47.372-20.273,49.115-46.707,49.78S509.026,240,508.37,213.191Z" fill="#90b8cc"/>
    <path id="Path_32" data-name="Path 32" d="M653.743,200.01c-.656-26.809,20.273-49.115,46.707-49.779s48.428,20.562,49.084,47.371-20.274,49.115-46.708,49.78S654.4,226.82,653.743,200.01Z" fill="#90b8cc"/>
    <path id="Path_33" data-name="Path 33" d="M475.384,268.661c-.7-28.741,31.206-52.891,71.211-53.9s73.056,21.512,73.759,50.252-31.206,52.891-71.212,53.9S476.087,297.4,475.384,268.661Z" fill="#90b8cc"/>
    <path id="Path_34" data-name="Path 34" d="M699.757,281.859c-.533-21.784,22.163-40.051,50.652-40.767s52.049,16.388,52.582,38.172-22.164,40.051-50.652,40.767S700.29,303.643,699.757,281.859Z" fill="#90b8cc"/>
    <path id="Path_35" data-name="Path 35" d="M649.018,249.049c-6.908-29.147,19.152-60.525,58.158-70.027s76.282,6.447,83.189,35.594-19.152,60.526-58.158,70.028S655.925,278.2,649.018,249.049Z" fill="#90b8cc"/>
    <rect id="Rectangle_21" data-name="Rectangle 21" width="232.096" height="48.493" transform="translate(532.548 270.241)" fill="#90b8cc"/>
    <g id="Group_8" data-name="Group 8" transform="translate(9.732 -0.016)" clip-path="url(#clip-path-2)">
      <text id="API" transform="translate(604.176 255.136)" font-size="40" font-family="Quicksand"><tspan x="0" y="0">API</tspan></text>
    </g>
    <path id="Path_36" data-name="Path 36" d="M145.043,312.31,134.1,333.531l-23.142-25.365Z"/>
    <g id="Group_9" data-name="Group 9" clip-path="url(#clip-path-3)">
      <text id="Returnerar_tidtabell" data-name="Returnerar tidtabell" transform="translate(157.204 404.205)" font-size="30" font-family="Quicksand"><tspan x="0" y="0">Returnerar tidtabell</tspan></text>
    </g>
    <g id="Group_10" data-name="Group 10" clip-path="url(#clip-path-4)">
      <text id="Hämtar_tidtabell" data-name="Hämtar tidtabell" transform="translate(836.227 361.249)" font-size="30" font-family="Quicksand-Regular, Quicksand"><tspan x="0" y="0">Hämtar tidtabell</tspan></text>
    </g>
    <path id="Path_37" data-name="Path 37" d="M-117.893,199.36c-11.385,11.581-69.217-.286-76.3-.286-7.142,0-13.886-9.77-13.886-18.257s9.2-14.472,9.2-31.016-4.761-22.762,11.9-41.522,0-27.694,22.217-52.707q22.218-25.013,44.436,0l.416,11.234-.416-11.234a5.739,5.739,0,0,1,.176-4.6l.24,15.83,2.011,132.554L-119.9,66.806Z" fill="#f90"/>
    <path id="Path_38" data-name="Path 38" d="M-120.117,201.12c11.078,10.415,60.419-6.986,66.6-7.672,6.236-.692,11.168-11.062,10.336-19.5-5.368-8.824-13.985-13.877-11.08-29.956-.617-16.512,2.947-23.14-14.467-40.145C-85.115,86.8-71.439,76.3-93.294,53.574q-21.856-22.726-38.805,4.3l.738,11.213-.738-11.213a6.452,6.452,0,0,0-.6-4.554l1.343,15.767,11.244,132.03L-131.361,69.09Z" fill="#f90"/>
    <g id="Group_11" data-name="Group 11">
      <path id="Path_39" data-name="Path 39" d="M-159.506,181.16h80.812A40.554,40.554,0,0,1-38.16,221.694V385.226A40.554,40.554,0,0,1-78.694,425.76h-80.812a40.554,40.554,0,0,1-40.534-40.534V221.694A40.554,40.554,0,0,1-159.506,181.16Z" fill="#140388"/>
      <path id="Path_40" data-name="Path 40" d="M-93.733,181.06c.009.28.012.561.012.844,0,17.97-12.188,32.56-27.2,32.56s-27.2-14.59-27.2-32.56c0-.283,0-.564.012-.844Z" fill="#eccbb6"/>
    </g>
    <path id="Path_41" data-name="Path 41" d="M49.883,213.538c2.536-10.037,11.079-16.344,19.066-14.075s12.411,12.261,9.875,22.3S67.744,238.1,59.758,235.836,47.346,223.575,49.883,213.538Z" fill="#eccbb6"/>
    <path id="Path_42" data-name="Path 42" d="M-260.285,408.364c2.536-10.037,11.08-16.344,19.066-14.075s12.412,12.261,9.876,22.3-11.08,16.344-19.067,14.075S-262.821,418.4-260.285,408.364Z" fill="#eccbb6"/>
    <path id="Path_43" data-name="Path 43" d="M-252.472,396.516l21.362,5.3,34.679-85.314L-198.1,214.414Z" fill="#140388"/>
    <path id="Path_44" data-name="Path 44" d="M-41.07,208.971c17.176,23.718,32.854,49.613,46.816,55.381,2.08.86,5.348.648,9.78-.662l34.748-42.363,19.767,11.694q-37.662,63.765-54.307,64.427c-16.646.662-40.575-6.84-51.6-18.092Q-46.9,268.1-41.07,208.971Z" fill="#140388"/>
    <ellipse id="Ellipse_14" data-name="Ellipse 14" cx="42.447" cy="54.498" rx="42.447" ry="54.498" transform="translate(-162.585 66.437)" fill="#eccbb6"/>
    <rect id="Rectangle_25" data-name="Rectangle 25" width="30.587" height="30.283" transform="translate(-134.391 158.51)" fill="#eccbb6"/>
    <g id="Group_12" data-name="Group 12">
      <path id="Path_45" data-name="Path 45" d="M86.553,144.1l25.872,15.84a3.376,3.376,0,0,1,1.189,4.443L83.229,220.185a2.984,2.984,0,0,1-4.222,1.13l-25.872-15.84a3.376,3.376,0,0,1-1.189-4.443l30.385-55.807A2.985,2.985,0,0,1,86.553,144.1Z" fill="#a2a2a2"/>
      <path id="Path_46" data-name="Path 46" d="M95.874,154.281l4.7,2.879a1.117,1.117,0,0,1,.393,1.47l-.047.086a.986.986,0,0,1-1.4.373l-4.7-2.879a1.117,1.117,0,0,1-.393-1.47l.047-.086A.986.986,0,0,1,95.874,154.281Z" fill="#575757"/>
      <path id="Path_47" data-name="Path 47" d="M89.82,151.5a1.114,1.114,0,0,1,1.55-.5,1.26,1.26,0,0,1,.368,1.673,1.115,1.115,0,0,1-1.55.5A1.259,1.259,0,0,1,89.82,151.5Z" fill="#575757"/>
      <path id="Path_48" data-name="Path 48" d="M66,207.788a2.807,2.807,0,0,1,3.9-1.254,3.172,3.172,0,0,1,.927,4.212,2.806,2.806,0,0,1-3.9,1.254A3.172,3.172,0,0,1,66,207.788Z" fill="#575757"/>
      <rect id="Rectangle_26" data-name="Rectangle 26" width="31.369" height="53.768" transform="translate(81.911 150.541) rotate(29.316)" fill="#575757"/>
    </g>
    <ellipse id="Ellipse_15" data-name="Ellipse 15" cx="3.68" cy="3.902" rx="3.68" ry="3.902" transform="translate(-127.36 113.29)" fill="#575757"/>
    <ellipse id="Ellipse_16" data-name="Ellipse 16" cx="3.614" cy="3.832" rx="3.614" ry="3.832" transform="translate(-97.004 113.374)" fill="#575757"/>
    <path id="Path_49" data-name="Path 49" d="M-117.9,145.459a10.118,10.118,0,0,0,9.815,9.414,10.118,10.118,0,0,0,9.816-9.414Z" fill="#fb9595"/>
    <g id="Group_13" data-name="Group 13">
      <path id="Path_50" data-name="Path 50" d="M-100.94,132.367c-.182,2.238-1.708,3.99-3.563,3.99s-3.382-1.752-3.563-3.99Z" fill="#d9a485"/>
    </g>
    <path id="Path_51" data-name="Path 51" d="M-169.448,127.734q41.615-30.89,48.273-46.776t15.259-15.3l-31.073-9.414q-25.8,23.829-29.962,39.715A88.181,88.181,0,0,0-169.448,127.734Z" fill="#f90"/>
    <path id="Path_52" data-name="Path 52" d="M462.121,318.742q-144.93,77-328.7,2" fill="none" stroke="#000" stroke-linecap="square" stroke-miterlimit="3" stroke-width="3"/>
    <path id="Path_53" data-name="Path 53" d="M470.345,145.765l10.942-21.221,23.143,25.364Z"/>
    <path id="Path_54" data-name="Path 54" d="M871.31,292.589v23.876l-32.194-11.938Z"/>
    <g id="Group_14" data-name="Group 14" clip-path="url(#clip-path-5)">
      <text id="När_går_bussen_" data-name="När går bussen?" transform="translate(187.27 73.637)" font-size="30" font-family="Quicksand-Regular, Quicksand"><tspan x="0" y="0">När går bussen?</tspan></text>
    </g>
    <path id="Path_55" data-name="Path 55" d="M148.485,139.332q147.038-77,333.479-2" fill="none" stroke="#000" stroke-linecap="square" stroke-miterlimit="3" stroke-width="3"/>
    <g id="Group_15" data-name="Group 15">
      <path id="Path_56" data-name="Path 56" d="M938.227,204.409q146.173-6.672,147.493,51.319.57,25.008-39.05,39.062-52.265,18.536-173.943,9.119" fill="none" stroke="#000" stroke-linecap="square" stroke-miterlimit="3" stroke-width="3"/>
    </g>
  </g>
</svg>
