<?xml version="1.0" encoding="UTF-8" standalone="no"?><!-- Generator: Gravit.io --><svg xmlns="http://www.w3.org/2000/svg" xmlns:xlink="http://www.w3.org/1999/xlink" style="isolation:isolate" viewBox="23.5 30.221 354 86.775" width="354pt" height="50"><defs><clipPath id="_clipPath_UZxXBLh3iHakOdaV9YlMwSXXLKF8yuwF"><rect x="23.5" y="30.221" width="354" height="86.775"/></clipPath></defs><g clip-path="url(#_clipPath_UZxXBLh3iHakOdaV9YlMwSXXLKF8yuwF)"><g clip-path="url(#_clipPath_A3V7ZfDJL6ykQms8e7kPy4JuFWq4HQwS)"><text transform="matrix(1,0,0,1,38,94.146)" style="font-family:'Quicksand';font-weight:700;font-size:60px;font-style:normal;font-variant-ligatures:none;fill:#242424;stroke:none;">API</text><text transform="matrix(1,0,0,1,129.02,94.146)" style="font-family:'Quicksand';font-weight:400;font-size:60px;font-style:normal;font-variant-ligatures:none;fill:#242424;stroke:none;">SKOLAN</text></g><defs><clipPath id="_clipPath_A3V7ZfDJL6ykQms8e7kPy4JuFWq4HQwS"><rect x="0" y="0" width="326" height="75" transform="matrix(1,0,0,1,38,34.146)"/></clipPath></defs><path d=" M 30 30.221 L 370 30.221 C 373.587 30.221 376.5 31.98 376.5 34.146 L 376.5 34.146 C 376.5 36.312 373.587 38.071 370 38.071 L 30 38.071 C 26.413 38.071 23.5 36.312 23.5 34.146 L 23.5 34.146 C 23.5 31.98 26.413 30.221 30 30.221 Z " fill="rgb(5,70,58)"/><path d=" M 31 109.146 L 371 109.146 C 374.587 109.146 377.5 110.905 377.5 113.071 L 377.5 113.071 C 377.5 115.237 374.587 116.996 371 116.996 L 31 116.996 C 27.413 116.996 24.5 115.237 24.5 113.071 L 24.5 113.071 C 24.5 110.905 27.413 109.146 31 109.146 Z " fill="rgb(5,70,58)"/></g></svg>