<svg xmlns="http://www.w3.org/2000/svg" xmlns:xlink="http://www.w3.org/1999/xlink" viewBox="0 0 203.98 50"><defs><style>.cls-1{fill:none;}.cls-2{clip-path:url(#clip-path);}.cls-3{clip-path:url(#clip-path-2);}.cls-4{isolation:isolate;}.cls-5{fill:#242424;}.cls-6{fill:#05463a;}</style><clipPath id="clip-path"><rect class="cls-1" width="203.98" height="50"/></clipPath><clipPath id="clip-path-2"><rect class="cls-1" x="8.35" y="2.26" width="187.84" height="43.22"/></clipPath></defs><g id="Layer_2" data-name="Layer 2"><g id="Layer_1-2" data-name="Layer 1"><g class="cls-2"><g class="cls-3"><g class="cls-4"><path class="cls-5" d="M19.83,18.06,12.37,35.62a2.14,2.14,0,0,1-.75,1,1.77,1.77,0,0,1-1.09.37,1.75,1.75,0,0,1-1.38-.52,1.89,1.89,0,0,1-.45-1.28,2.64,2.64,0,0,1,.1-.66l8.61-20.67a2.28,2.28,0,0,1,.85-1.07,1.82,1.82,0,0,1,1.23-.32,2.07,2.07,0,0,1,1.16.37,2.05,2.05,0,0,1,.77,1l8.51,20.26a2.41,2.41,0,0,1,.17.83,1.9,1.9,0,0,1-.6,1.48,2,2,0,0,1-1.33.56A1.85,1.85,0,0,1,27,36.63a2.6,2.6,0,0,1-.78-1L18.83,18.27ZM13.44,31.41l1.9-4h9.33l.66,4Z"/><path class="cls-5" d="M43,12.63a6,6,0,0,1,3.37,1,7.72,7.72,0,0,1,2.54,2.8,8,8,0,0,1,1,3.94,8.06,8.06,0,0,1-3.51,6.73A6,6,0,0,1,43,28.19H36.67l.35-.62v7.15a2.15,2.15,0,0,1-.56,1.51,1.88,1.88,0,0,1-1.45.6,1.84,1.84,0,0,1-1.42-.6A2.15,2.15,0,0,1,33,34.72v-20a2,2,0,0,1,.6-1.5,2.08,2.08,0,0,1,1.51-.61Zm0,11.62a1.9,1.9,0,0,0,1.28-.55,4.53,4.53,0,0,0,1-1.44,4.38,4.38,0,0,0,.41-1.85,4.29,4.29,0,0,0-.41-1.86,4.39,4.39,0,0,0-1-1.41A2,2,0,0,0,43,16.61H36.6L37,16V24.8l-.39-.55Z"/><path class="cls-5" d="M58.21,34.72a2,2,0,0,1-.66,1.51,2.18,2.18,0,0,1-1.52.6,2,2,0,0,1-2.14-2.11v-20a2,2,0,0,1,.62-1.5,2.19,2.19,0,0,1,1.59-.61,2.11,2.11,0,0,1,1.47.61,2,2,0,0,1,.64,1.5Z"/></g><g class="cls-4"><path class="cls-5" d="M70.72,37.18a10.74,10.74,0,0,1-4.56-.83,12.91,12.91,0,0,1-3.7-2.59,1.11,1.11,0,0,1-.29-.35,1,1,0,0,1-.12-.48,1.06,1.06,0,0,1,.32-.76,1,1,0,0,1,.75-.35,1.07,1.07,0,0,1,.76.35,9.49,9.49,0,0,0,3.06,2.21,8.92,8.92,0,0,0,3.68.76,7.85,7.85,0,0,0,3-.52,4.71,4.71,0,0,0,2-1.49,3.49,3.49,0,0,0,.76-2.24,3.81,3.81,0,0,0-.86-2.58,6.65,6.65,0,0,0-2.28-1.62,24.46,24.46,0,0,0-3.15-1.16,26.78,26.78,0,0,1-2.7-1,10.16,10.16,0,0,1-2.28-1.32,5.24,5.24,0,0,1-1.55-1.91A6.33,6.33,0,0,1,63,18.58a5.68,5.68,0,0,1,1-3.25,6.46,6.46,0,0,1,2.75-2.23,9.88,9.88,0,0,1,4.13-.81,11.37,11.37,0,0,1,3.93.69,6.82,6.82,0,0,1,3,2,1.57,1.57,0,0,1,.51,1,1,1,0,0,1-.34.69,1.07,1.07,0,0,1-.76.35.81.81,0,0,1-.59-.24,5.93,5.93,0,0,0-1.49-1.3,7.7,7.7,0,0,0-2-.88,8.18,8.18,0,0,0-2.27-.31,7.92,7.92,0,0,0-2.92.5,4.73,4.73,0,0,0-2,1.43,3.48,3.48,0,0,0-.74,2.25A3.45,3.45,0,0,0,66,20.9a6.31,6.31,0,0,0,2.17,1.53c.9.41,1.86.78,2.87,1.13a26.62,26.62,0,0,1,2.86,1,10.4,10.4,0,0,1,2.42,1.33,5.77,5.77,0,0,1,1.66,2,6.88,6.88,0,0,1,.6,3.05,5.39,5.39,0,0,1-1,3.18,7.07,7.07,0,0,1-2.75,2.25A9.79,9.79,0,0,1,70.72,37.18Z"/><path class="cls-5" d="M84.55,36.83a1,1,0,0,1-.78-.31,1.07,1.07,0,0,1-.29-.76V13.7a1,1,0,0,1,.31-.76,1.11,1.11,0,0,1,.8-.31,1.07,1.07,0,0,1,.76.31,1.08,1.08,0,0,1,.31.76V35.76a1.17,1.17,0,0,1-.35.76A1,1,0,0,1,84.55,36.83ZM100.39,12.7a1,1,0,0,1,.7.31,1,1,0,0,1,.3.69,1,1,0,0,1-.31.73L85.38,29.12l-.28-2.35L99.63,13.05A1.06,1.06,0,0,1,100.39,12.7ZM100.77,37a1,1,0,0,1-.76-.38L90.19,24.25l1.62-1.63,9.89,12.52a1.25,1.25,0,0,1,.24.73,1,1,0,0,1-.4.83A1.36,1.36,0,0,1,100.77,37Z"/><path class="cls-5" d="M127.35,24.73a14.07,14.07,0,0,1-.85,5,11.69,11.69,0,0,1-2.4,3.94,10.74,10.74,0,0,1-3.68,2.59,12.21,12.21,0,0,1-9.3,0,10.74,10.74,0,0,1-3.68-2.59A11.87,11.87,0,0,1,105,29.73a14.29,14.29,0,0,1-.84-5,14.24,14.24,0,0,1,.84-5,11.77,11.77,0,0,1,2.41-3.94,10.76,10.76,0,0,1,3.68-2.6,12.34,12.34,0,0,1,9.3,0,10.76,10.76,0,0,1,3.68,2.6,11.59,11.59,0,0,1,2.4,3.94A14,14,0,0,1,127.35,24.73Zm-2.21,0A11.81,11.81,0,0,0,124,19.32a9.16,9.16,0,0,0-16.36,0,11.81,11.81,0,0,0-1.19,5.41,11.75,11.75,0,0,0,1.19,5.41,9.15,9.15,0,0,0,16.36,0A11.75,11.75,0,0,0,125.14,24.73Z"/><path class="cls-5" d="M145.64,34.79a1,1,0,0,1,.73.3,1,1,0,0,1,.31.71,1,1,0,0,1-1,1H133.3a1,1,0,0,1-.75-.31,1,1,0,0,1-.29-.72V13.67a1,1,0,0,1,.31-.73,1.11,1.11,0,0,1,.8-.31,1.09,1.09,0,0,1,.74.31,1,1,0,0,1,.33.73V35.38l-.66-.59Z"/><path class="cls-5" d="M158.74,15.3l-8.4,20.88a1.16,1.16,0,0,1-.38.52.94.94,0,0,1-.55.17,1,1,0,0,1-.73-.26,1,1,0,0,1-.27-.64.78.78,0,0,1,0-.42l9.13-22.33a1.12,1.12,0,0,1,.43-.53,1.09,1.09,0,0,1,.61-.16,1,1,0,0,1,.6.19,1.24,1.24,0,0,1,.4.5l9.09,22.23a1.23,1.23,0,0,1,.07.42.9.9,0,0,1-.31.74,1.12,1.12,0,0,1-.73.26,1,1,0,0,1-.6-.19,1.22,1.22,0,0,1-.4-.5l-8.61-21Zm-6.39,14.55.86-2h10.72l.41,2Z"/><path class="cls-5" d="M190.72,12.63a.94.94,0,0,1,.71.28,1,1,0,0,1,.26.69V35.73a1,1,0,0,1-.33.81,1.07,1.07,0,0,1-.74.29,1.53,1.53,0,0,1-.45-.08.89.89,0,0,1-.38-.26L174.37,15.71l.59-.31V35.9a1,1,0,0,1-1.68.66,1,1,0,0,1-.26-.66V13.67a1,1,0,0,1,.31-.78,1.08,1.08,0,0,1,.69-.26,1.29,1.29,0,0,1,.45.09.79.79,0,0,1,.38.29L190.1,33.55l-.35.62V13.6a.89.89,0,0,1,.3-.69A1,1,0,0,1,190.72,12.63Z"/></g></g><path class="cls-6" d="M3.75,0h195.9c2.07,0,3.75,1,3.75,2.26h0c0,1.25-1.68,2.26-3.75,2.26H3.75C1.68,4.52,0,3.51,0,2.26H0C0,1,1.68,0,3.75,0Z"/><path class="cls-6" d="M4.32,45.48H200.23c2.07,0,3.75,1,3.75,2.26h0C204,49,202.3,50,200.23,50H4.32C2.25,50,.58,49,.58,47.74h0C.58,46.49,2.25,45.48,4.32,45.48Z"/></g></g></g></svg>