<svg xmlns="http://www.w3.org/2000/svg" xmlns:xlink="http://www.w3.org/1999/xlink" width="700.47" height="376.06" viewBox="0 0 700.47 376.06">
  <defs>
    <clipPath id="clip-path">
      <rect id="Rectangle_20" data-name="Rectangle 20" width="64" height="30" transform="translate(486.758 176.758) rotate(-4.359)"/>
    </clipPath>
    <clipPath id="clip-path-2">
      <rect id="Rectangle_22" data-name="Rectangle 22" width="52" height="30" transform="translate(182 150.384)"/>
    </clipPath>
  </defs>
  <g id="Group_14" data-name="Group 14" transform="translate(388 -739)">
    <path id="Path_67" data-name="Path 67" d="M448.1,325.109c-8.01,8.214-48.7-.2-53.68-.2-5.025,0-9.77-6.929-9.77-12.948s6.476-10.264,6.476-22-3.35-16.144,8.374-29.449,0-19.641,15.63-37.382q15.631-17.74,31.262,0l.293,7.968-.293-7.968a4.1,4.1,0,0,1,.124-3.259l.169,11.227,1.415,94.012L446.686,231.1Z" transform="translate(-359.54 610.06)" fill="#f90"/>
    <path id="Path_68" data-name="Path 68" d="M446.536,326.357c7.794,7.387,42.506-4.955,46.858-5.441,4.388-.491,7.858-7.846,7.272-13.832-3.776-6.258-9.839-9.842-7.795-21.246-.434-11.711,2.074-16.412-10.178-28.473-11.532-12.088-1.91-19.534-17.286-35.653q-15.377-16.118-27.3,3.052l.52,7.953-.52-7.953a4.608,4.608,0,0,0-.425-3.23l.945,11.183,7.91,93.64-7.91-93.64Z" transform="translate(-359.54 610.06)" fill="#f90"/>
    <g id="Group_9" data-name="Group 9" transform="translate(-359.54 610.06)">
      <path id="Path_3" data-name="Path 3" d="M420.495,312.21h53.52A30.2,30.2,0,0,1,504.2,342.394V474.816A30.2,30.2,0,0,1,474.015,505h-53.52a30.2,30.2,0,0,1-30.185-30.184V342.394A30.2,30.2,0,0,1,420.495,312.21Z" fill="#140388"/>
      <path id="Path_4" data-name="Path 4" d="M465.1,312.13c.006.221.008.443.008.665,0,14.164-8.574,25.664-19.136,25.664s-19.137-11.5-19.137-25.664c0-.222,0-.444.008-.665Z" fill="#eadad0"/>
    </g>
    <path id="Path_69" data-name="Path 69" d="M548.255,280.18a11.426,11.426,0,0,1,14.068-8.245,11.809,11.809,0,0,1,8.171,14.369,11.426,11.426,0,0,1-14.068,8.245A11.807,11.807,0,0,1,548.255,280.18Z" transform="translate(-359.54 610.06)" fill="#eadad0"/>
    <path id="Path_70" data-name="Path 70" d="M347.924,473.342c1.784-7.118,7.795-11.591,13.414-9.982s8.731,8.7,6.947,15.815-7.8,11.592-13.414,9.982S346.14,480.461,347.924,473.342Z" transform="translate(-359.54 610.06)" fill="#eadad0"/>
    <path id="Path_71" data-name="Path 71" d="M353.42,464.939l15.029,3.756,24.4-60.508-1.171-72.4Z" transform="translate(-359.54 610.06)" fill="#140388"/>
    <ellipse id="Ellipse_31" data-name="Ellipse 31" cx="29.863" cy="38.652" rx="29.863" ry="38.652" transform="translate(57.118 840.895)" fill="#eadad0"/>
    <path id="Path_72" data-name="Path 72" d="M429.32,259.514a3.686,3.686,0,1,1,3.68,3.9A3.8,3.8,0,0,1,429.32,259.514Z" transform="translate(-359.54 610.06)" fill="#575757"/>
    <path id="Path_73" data-name="Path 73" d="M454.4,259.514a3.616,3.616,0,1,1,3.61,3.83A3.727,3.727,0,0,1,454.4,259.514Z" transform="translate(-359.54 610.06)" fill="#575757"/>
    <path id="Path_74" data-name="Path 74" d="M437.191,286.574a9.82,9.82,0,0,0,19.63,0Z" transform="translate(-359.54 610.06)" fill="#fb9595"/>
    <path id="Path_75" data-name="Path 75" d="M450.086,273c-.18,2.24-1.71,4-3.56,4s-3.39-1.75-3.57-4Z" transform="translate(-359.54 610.06)" fill="#d9a485"/>
    <rect id="Rectangle_16" data-name="Rectangle 16" width="21.519" height="21.478" transform="translate(76.954 906.197)" fill="#eadad0"/>
    <circle id="Ellipse_32" data-name="Ellipse 32" cx="16.298" cy="16.298" r="16.298" transform="translate(244.945 824.839)" fill="#f7e152"/>
    <path id="Path_76" data-name="Path 76" d="M554.92,259h0a2.293,2.293,0,0,1,2.08,2.457v18.736a2.293,2.293,0,0,1-2.08,2.457h0a2.293,2.293,0,0,1-2.08-2.457V261.457A2.293,2.293,0,0,1,554.92,259Z" transform="translate(-359.54 610.06)" fill="#eadad0"/>
    <rect id="Rectangle_17" data-name="Rectangle 17" width="19" height="10.299" transform="translate(251.743 854.175)" fill="#b9b9b9"/>
    <rect id="Rectangle_18" data-name="Rectangle 18" width="19" height="4.863" transform="translate(251.743 864.474)"/>
    <rect id="Rectangle_19" data-name="Rectangle 19" width="17" height="4.137" transform="translate(252.743 869.338)" fill="#b9b9b9"/>
    <path id="Path_77" data-name="Path 77" d="M620.785,189.3h0a1.476,1.476,0,0,1,1.475,1.476v17.708a1.476,1.476,0,0,1-1.475,1.476h0a1.476,1.476,0,0,1-1.475-1.476V190.776A1.476,1.476,0,0,1,620.785,189.3Z" transform="translate(-359.54 610.06)" fill="#f7e152"/>
    <path id="Path_78" data-name="Path 78" d="M657.257,208.291h0a1.475,1.475,0,0,1-.348,2.057L642.462,220.6a1.479,1.479,0,0,1-2.059-.349h0a1.475,1.475,0,0,1,.348-2.057l14.447-10.25A1.479,1.479,0,0,1,657.257,208.291Z" transform="translate(-359.54 610.06)" fill="#f7e152"/>
    <path id="Path_79" data-name="Path 79" d="M657.351,252.3h0a1.476,1.476,0,0,1-2,.592l-15.568-8.44a1.475,1.475,0,0,1-.593-2h0a1.476,1.476,0,0,1,2-.592l15.568,8.44A1.475,1.475,0,0,1,657.351,252.3Z" transform="translate(-359.54 610.06)" fill="#f7e152"/>
    <path id="Path_80" data-name="Path 80" d="M586.229,254.01h0a1.476,1.476,0,0,1,.381-2.051l14.6-10.02a1.477,1.477,0,0,1,2.052.381h0a1.476,1.476,0,0,1-.381,2.051l-14.6,10.02A1.477,1.477,0,0,1,586.229,254.01Z" transform="translate(-359.54 610.06)" fill="#f7e152"/>
    <path id="Path_81" data-name="Path 81" d="M595.308,186.561h0a1.654,1.654,0,0,1,2.176.8l13.508,23.054a1.654,1.654,0,0,1-.37,2.288h0a1.654,1.654,0,0,1-2.176-.8l-13.508-23.054A1.654,1.654,0,0,1,595.308,186.561Z" transform="translate(-359.54 610.06)" fill="#f7e152"/>
    <path id="Path_82" data-name="Path 82" d="M646.13,186.256h0a1.656,1.656,0,0,1,.463,2.272l-12.56,23.592a1.655,1.655,0,0,1-2.143.884h0a1.656,1.656,0,0,1-.463-2.272l12.56-23.592A1.655,1.655,0,0,1,646.13,186.256Z" transform="translate(-359.54 610.06)" fill="#f7e152"/>
    <path id="Path_83" data-name="Path 83" d="M672,232.533h0a1.654,1.654,0,0,1-1.935,1.274l-26.563-2.862a1.655,1.655,0,0,1-1.618-1.658h0a1.654,1.654,0,0,1,1.935-1.274l26.563,2.862A1.655,1.655,0,0,1,672,232.533Z" transform="translate(-359.54 610.06)" fill="#f7e152"/>
    <path id="Path_84" data-name="Path 84" d="M601.055,229.536h0a1.655,1.655,0,0,1-1.645,1.633L572.8,233.6a1.655,1.655,0,0,1-1.914-1.307h0a1.655,1.655,0,0,1,1.645-1.633l26.611-2.432A1.655,1.655,0,0,1,601.055,229.536Z" transform="translate(-359.54 610.06)" fill="#f7e152"/>
    <path id="Path_85" data-name="Path 85" d="M582.866,207.37h0a1.475,1.475,0,0,1,2.074-.224l13.79,11.1a1.475,1.475,0,0,1,.224,2.074h0a1.476,1.476,0,0,1-2.074.224l-13.79-11.1A1.475,1.475,0,0,1,582.866,207.37Z" transform="translate(-359.54 610.06)" fill="#f7e152"/>
    <g id="Group_10" data-name="Group 10" transform="translate(-359.54 610.06)" clip-path="url(#clip-path)">
      <text id="AHA_" data-name="AHA !" transform="translate(488.57 200.69) rotate(-4.359)" font-size="24" font-family="Quicksand-Regular, Quicksand"><tspan x="0" y="0">AHA !</tspan></text>
    </g>
    <path id="Path_86" data-name="Path 86" d="M502,333a20.611,20.611,0,0,0,9,3.269c3.9.231,25.122-2.792,30-6.269,2.546-1.815,5.256-2.389,8-18.042a129.155,129.155,0,0,0,2.205-22L565,293q-4.056,41.947-9,46c-3.05,2.5-48.22,25.561-53,25Z" transform="translate(-359.54 610.06)" fill="#140388"/>
    <path id="Path_87" data-name="Path 87" d="M72.22,325.109c-8.009,8.214-48.7-.2-53.68-.2-5.024,0-9.769-6.929-9.769-12.948s6.475-10.264,6.475-22S11.9,273.816,23.62,260.511s0-19.641,15.631-37.382q15.631-17.74,31.262,0l.292,7.968-.292-7.968a4.1,4.1,0,0,1,.123-3.259l.169,11.227,1.415,94.012L70.805,231.1Z" transform="translate(-359.54 610.06)" fill="#f90"/>
    <path id="Path_88" data-name="Path 88" d="M70.656,326.357c7.793,7.387,42.506-4.955,46.858-5.441,4.387-.491,7.857-7.846,7.272-13.832-3.777-6.258-9.839-9.842-7.8-21.246-.434-11.711,2.074-16.412-10.177-28.473-11.532-12.088-1.911-19.534-17.287-35.653q-15.376-16.118-27.3,3.052l.519,7.953-.519-7.953a4.614,4.614,0,0,0-.425-3.23l.944,11.183,7.911,93.64-7.911-93.64Z" transform="translate(-359.54 610.06)" fill="#f90"/>
    <g id="Group_11" data-name="Group 11" transform="translate(-359.54 610.06)">
      <path id="Path_25" data-name="Path 25" d="M44.615,312.21h53.52a30.2,30.2,0,0,1,30.185,30.184V474.816A30.2,30.2,0,0,1,98.135,505H44.615A30.2,30.2,0,0,1,14.43,474.816V342.394A30.2,30.2,0,0,1,44.615,312.21Z" fill="#140388"/>
      <path id="Path_26" data-name="Path 26" d="M89.218,312.13c.006.221.008.443.008.665,0,14.164-8.575,25.664-19.137,25.664s-19.137-11.5-19.137-25.664c0-.222,0-.444.009-.665Z" fill="#eadad0"/>
    </g>
    <path id="Path_89" data-name="Path 89" d="M-27.957,473.342c1.785-7.118,7.8-11.591,13.414-9.982s8.732,8.7,6.948,15.815-7.8,11.592-13.414,9.982S-29.741,480.461-27.957,473.342Z" transform="translate(-359.54 610.06)" fill="#eadad0"/>
    <path id="Path_90" data-name="Path 90" d="M168.976,468.858c-1.784-7.119-7.795-11.592-13.414-9.983s-8.732,8.7-6.947,15.815,7.795,11.592,13.413,9.982S170.76,475.976,168.976,468.858Z" transform="translate(-359.54 610.06)" fill="#eadad0"/>
    <path id="Path_91" data-name="Path 91" d="M-22.46,464.939-7.432,468.7l24.4-60.508-1.171-72.4Z" transform="translate(-359.54 610.06)" fill="#140388"/>
    <path id="Path_92" data-name="Path 92" d="M164.277,462.7l-15.029,3.756-24.4-60.509,1.171-72.4Z" transform="translate(-359.54 610.06)" fill="#140388"/>
    <ellipse id="Ellipse_33" data-name="Ellipse 33" cx="29.863" cy="38.652" rx="29.863" ry="38.652" transform="translate(-318.762 840.895)" fill="#eadad0"/>
    <rect id="Rectangle_21" data-name="Rectangle 21" width="21.519" height="21.478" transform="translate(-298.927 906.197)" fill="#eadad0"/>
    <ellipse id="Ellipse_34" data-name="Ellipse 34" cx="22.5" cy="20.661" rx="22.5" ry="20.661" transform="translate(-198.546 743)" fill="#bfc8c8"/>
    <ellipse id="Ellipse_35" data-name="Ellipse 35" cx="21" cy="21.53" rx="21" ry="21.53" transform="translate(-173.54 739)" fill="#bfc8c8"/>
    <ellipse id="Ellipse_36" data-name="Ellipse 36" cx="22.47" cy="19.676" rx="22.47" ry="19.676" transform="translate(-168.01 776.444)" fill="#bfc8c8"/>
    <ellipse id="Ellipse_37" data-name="Ellipse 37" cx="20.5" cy="18.415" rx="20.5" ry="18.415" transform="translate(-214.54 762.53)" fill="#bfc8c8"/>
    <ellipse id="Ellipse_38" data-name="Ellipse 38" cx="22.5" cy="21.565" rx="22.5" ry="21.565" transform="translate(-197.54 770.808)" fill="#bfc8c8"/>
    <ellipse id="Ellipse_39" data-name="Ellipse 39" cx="22" cy="19.53" rx="22" ry="19.53" transform="translate(-148.54 743)" fill="#bfc8c8"/>
    <ellipse id="Ellipse_40" data-name="Ellipse 40" cx="20.5" cy="20.439" rx="20.5" ry="20.439" transform="translate(-138.04 767.818)" fill="#bfc8c8"/>
    <ellipse id="Ellipse_41" data-name="Ellipse 41" cx="17.5" cy="16.868" rx="17.5" ry="16.868" transform="translate(-123.54 753.94)" fill="#bfc8c8"/>
    <circle id="Ellipse_42" data-name="Ellipse 42" cx="7.204" cy="7.204" r="7.204" transform="translate(-206.802 810.432)" fill="#bfc8c8"/>
    <circle id="Ellipse_43" data-name="Ellipse 43" cx="4.171" cy="4.171" r="4.171" transform="translate(-238.925 843.394)" fill="#bfc8c8"/>
    <circle id="Ellipse_44" data-name="Ellipse 44" cx="5.493" cy="5.493" r="5.493" transform="translate(-222.414 827.073)" fill="#bfc8c8"/>
    <path id="Path_93" data-name="Path 93" d="M403.354,275.612q33.571-20.49,40.343-32.687t12.82-10.753l-20.858-11.2q-21.413,16.526-26.451,29a83.189,83.189,0,0,0-5.854,25.641Z" transform="translate(-359.54 610.06)" fill="#f90"/>
    <path id="Path_94" data-name="Path 94" d="M52.966,260.5a3.686,3.686,0,1,1,3.68,3.9A3.8,3.8,0,0,1,52.966,260.5Z" transform="translate(-359.54 610.06)" fill="#575757"/>
    <path id="Path_95" data-name="Path 95" d="M78.049,260.5a3.616,3.616,0,1,1,3.61,3.83A3.727,3.727,0,0,1,78.049,260.5Z" transform="translate(-359.54 610.06)" fill="#575757"/>
    <path id="Path_96" data-name="Path 96" d="M73.732,273.988c-.18,2.24-1.71,4-3.56,4s-3.39-1.75-3.57-4Z" transform="translate(-359.54 610.06)" fill="#d9a485"/>
    <path id="Path_97" data-name="Path 97" d="M27,276.6q33.571-20.49,40.343-32.687,8.74-12.641,14.789-11.2L59.305,221.96q-21.413,16.526-26.451,29A83.189,83.189,0,0,0,27,276.6Z" transform="translate(-359.54 610.06)" fill="#f90"/>
    <ellipse id="Ellipse_45" data-name="Ellipse 45" cx="3.718" cy="4.339" rx="3.718" ry="4.339" transform="translate(-293.091 897.049)" fill="#fb9595"/>
    <g id="Group_12" data-name="Group 12" transform="translate(-359.54 610.06)" clip-path="url(#clip-path-2)">
      <text id="API_" data-name="API?" transform="translate(185 177.384)" font-size="24" font-family="Quicksand-Regular, Quicksand"><tspan x="0" y="0">API?</tspan></text>
    </g>
  </g>
</svg>
