<?xml version="1.0" encoding="UTF-8" standalone="no"?><!-- Generator: Gravit.io --><svg xmlns="http://www.w3.org/2000/svg" xmlns:xlink="http://www.w3.org/1999/xlink" style="isolation:isolate" viewBox="-28.46 128.94 1037.96 376.06" width="1037.96pt" height="376.06pt"><defs><clipPath id="_clipPath_jYTMk3UPMIt7KIW7mlMLGRqRFCRSXBh9"><rect x="-28.46" y="128.94" width="1037.96" height="376.06"/></clipPath></defs><g clip-path="url(#_clipPath_jYTMk3UPMIt7KIW7mlMLGRqRFCRSXBh9)"><path d=" M 448.101 325.109 C 440.091 333.323 399.404 324.906 394.421 324.906 C 389.396 324.906 384.651 317.977 384.651 311.958 C 384.651 305.939 391.127 301.694 391.127 289.96 C 391.127 278.227 387.777 273.816 399.501 260.511 C 411.224 247.206 399.501 240.87 415.131 223.129 Q 430.762 205.389 446.393 223.129 L 446.686 231.097 L 446.393 223.129 C 445.981 222.215 446.02 221.068 446.517 219.87 L 446.686 231.097 L 448.101 325.109 L 446.686 231.097 L 448.101 325.109 Z " fill="rgb(255,153,0)"/><path d=" M 446.536 326.357 C 454.33 333.744 489.042 321.402 493.394 320.916 C 497.782 320.425 501.252 313.07 500.666 307.084 C 496.89 300.826 490.827 297.242 492.871 285.838 C 492.437 274.127 494.945 269.426 482.693 257.365 C 471.161 245.277 480.783 237.831 465.407 221.712 Q 450.03 205.594 438.106 224.764 L 438.626 232.717 L 438.106 224.764 C 438.377 223.814 438.232 222.678 437.681 221.534 L 438.626 232.717 L 446.536 326.357 L 438.626 232.717 L 446.536 326.357 Z " fill="rgb(255,153,0)"/><g><path d="M 420.495 312.21 L 474.015 312.21 C 490.675 312.21 504.2 325.735 504.2 342.394 L 504.2 474.816 C 504.2 491.475 490.675 505 474.015 505 L 420.495 505 C 403.835 505 390.31 491.475 390.31 474.816 L 390.31 342.394 C 390.31 325.735 403.835 312.21 420.495 312.21 Z" style="stroke:none;fill:#140388;stroke-miterlimit:10;"/><path d=" M 465.098 312.13 C 465.104 312.351 465.106 312.573 465.106 312.795 C 465.106 326.959 456.532 338.459 445.97 338.459 C 435.408 338.459 426.833 326.959 426.833 312.795 C 426.833 312.573 426.835 312.351 426.841 312.13 L 465.098 312.13 L 465.098 312.13 Z " fill="rgb(234,218,208)"/></g><path d=" M 548.255 280.18 C 549.882 273.94 556.185 270.245 562.323 271.935 C 568.46 273.625 572.121 280.064 570.494 286.304 C 568.867 292.544 562.563 296.239 556.426 294.549 C 550.289 292.859 546.627 286.421 548.255 280.18 Z " fill="rgb(234,218,208)"/><path d=" M 347.924 473.342 C 349.708 466.224 355.719 461.751 361.338 463.36 C 366.956 464.97 370.069 472.056 368.285 479.175 C 366.501 486.294 360.49 490.767 354.871 489.157 C 349.253 487.548 346.14 480.461 347.924 473.342 Z " fill="rgb(234,218,208)"/><path d=" M 353.42 464.939 L 368.449 468.695 L 392.847 408.187 L 391.676 335.786 L 353.42 464.939 Z " fill="rgb(20,3,136)"/><ellipse vector-effect="non-scaling-stroke" cx="446.5212546419458" cy="269.4875023852787" rx="29.862612967594202" ry="38.65221721650245" fill="rgb(234,218,208)"/><path d=" M 429.32 259.514 C 429.32 257.362 430.969 255.614 433 255.614 C 435.031 255.614 436.68 257.362 436.68 259.514 C 436.68 261.667 435.031 263.414 433 263.414 C 430.969 263.414 429.32 261.667 429.32 259.514 Z " fill="rgb(87,87,87)"/><path d=" M 454.403 259.514 C 454.403 257.401 456.02 255.684 458.013 255.684 C 460.005 255.684 461.623 257.401 461.623 259.514 C 461.623 261.628 460.005 263.344 458.013 263.344 C 456.02 263.344 454.403 261.628 454.403 259.514 Z " fill="rgb(87,87,87)"/><path d=" M 437.191 286.574 C 437.36 291.873 441.705 296.081 447.006 296.081 C 452.308 296.081 456.652 291.873 456.821 286.574 L 437.191 286.574 Z " fill="rgb(251,149,149)"/><path d=" M 450.086 273 C 449.906 275.24 448.376 277 446.526 277 C 444.676 277 443.136 275.25 442.956 273 L 450.086 273 Z " fill="rgb(217,164,133)"/><rect x="436.494" y="296.137" width="21.519" height="21.478" transform="matrix(1,0,0,1,0,0)" fill="rgb(234,218,208)"/><circle vector-effect="non-scaling-stroke" cx="620.7825015008235" cy="231.07717868809664" r="16.297488892172396" fill="rgb(247,225,82)"/><path d="M 554.92 259 L 554.92 259 C 556.068 259 557 260.101 557 261.457 L 557 280.193 C 557 281.549 556.068 282.65 554.92 282.65 L 554.92 282.65 C 553.772 282.65 552.84 281.549 552.84 280.193 L 552.84 261.457 C 552.84 260.101 553.772 259 554.92 259 Z" style="stroke:none;fill:#EADAD0;stroke-miterlimit:10;"/><rect x="611.283" y="244.115" width="19" height="10.299" transform="matrix(1,0,0,1,0,0)" fill="rgb(185,185,185)"/><rect x="611.283" y="254.414" width="19" height="4.863" transform="matrix(1,0,0,1,0,0)" fill="rgb(0,0,0)"/><rect x="612.283" y="259.278" width="17" height="4.137" transform="matrix(1,0,0,1,0,0)" fill="rgb(185,185,185)"/><path d="M 620.785 189.3 L 620.785 189.3 C 621.599 189.3 622.26 189.961 622.26 190.776 L 622.26 208.484 C 622.26 209.299 621.599 209.96 620.785 209.96 L 620.785 209.96 C 619.971 209.96 619.31 209.299 619.31 208.484 L 619.31 190.776 C 619.31 189.961 619.971 189.3 620.785 189.3 Z" style="stroke:none;fill:#F7E152;stroke-miterlimit:10;"/><path d="M 657.257 208.291 L 657.257 208.291 C 657.729 208.955 657.573 209.876 656.909 210.348 L 642.462 220.598 C 641.797 221.069 640.875 220.913 640.403 220.249 L 640.403 220.249 C 639.931 219.585 640.087 218.664 640.751 218.192 L 655.198 207.942 C 655.863 207.471 656.785 207.627 657.257 208.291 Z" style="stroke:none;fill:#F7E152;stroke-miterlimit:10;"/><path d="M 657.351 252.299 L 657.351 252.299 C 656.963 253.014 656.066 253.28 655.35 252.891 L 639.782 244.451 C 639.066 244.063 638.8 243.167 639.189 242.451 L 639.189 242.451 C 639.577 241.736 640.474 241.47 641.19 241.859 L 656.758 250.299 C 657.474 250.687 657.74 251.583 657.351 252.299 Z" style="stroke:none;fill:#F7E152;stroke-miterlimit:10;"/><path d="M 586.229 254.01 L 586.229 254.01 C 585.768 253.339 585.939 252.42 586.61 251.959 L 601.209 241.939 C 601.88 241.478 602.8 241.649 603.261 242.32 L 603.261 242.32 C 603.722 242.991 603.551 243.91 602.88 244.371 L 588.281 254.391 C 587.61 254.852 586.69 254.681 586.229 254.01 Z" style="stroke:none;fill:#F7E152;stroke-miterlimit:10;"/><path d="M 595.308 186.561 L 595.308 186.561 C 596.01 186.149 596.986 186.506 597.484 187.357 L 610.992 210.411 C 611.491 211.262 611.325 212.287 610.622 212.699 L 610.622 212.699 C 609.92 213.111 608.944 212.754 608.446 211.903 L 594.938 188.849 C 594.439 187.998 594.605 186.973 595.308 186.561 Z" style="stroke:none;fill:#F7E152;stroke-miterlimit:10;"/><path d="M 646.13 186.256 L 646.13 186.256 C 646.849 186.639 647.056 187.657 646.593 188.528 L 634.033 212.12 C 633.569 212.991 632.609 213.387 631.89 213.004 L 631.89 213.004 C 631.171 212.621 630.964 211.603 631.427 210.732 L 643.987 187.14 C 644.451 186.269 645.411 185.873 646.13 186.256 Z" style="stroke:none;fill:#F7E152;stroke-miterlimit:10;"/><path d="M 672.003 232.533 L 672.003 232.533 C 671.916 233.342 671.049 233.913 670.068 233.807 L 643.505 230.945 C 642.525 230.839 641.8 230.096 641.887 229.287 L 641.887 229.287 C 641.974 228.478 642.841 227.907 643.822 228.013 L 670.385 230.875 C 671.365 230.981 672.09 231.724 672.003 232.533 Z" style="stroke:none;fill:#F7E152;stroke-miterlimit:10;"/><path d="M 601.055 229.536 L 601.055 229.536 C 601.129 230.348 600.392 231.079 599.41 231.169 L 572.799 233.601 C 571.817 233.691 570.959 233.105 570.885 232.294 L 570.885 232.294 C 570.811 231.482 571.548 230.751 572.53 230.661 L 599.141 228.229 C 600.123 228.139 600.981 228.725 601.055 229.536 Z" style="stroke:none;fill:#F7E152;stroke-miterlimit:10;"/><path d="M 582.866 207.37 L 582.866 207.37 C 583.377 206.736 584.306 206.635 584.94 207.146 L 598.73 218.246 C 599.364 218.757 599.465 219.686 598.954 220.32 L 598.954 220.32 C 598.443 220.954 597.514 221.055 596.88 220.544 L 583.09 209.444 C 582.456 208.933 582.355 208.004 582.866 207.37 Z" style="stroke:none;fill:#F7E152;stroke-miterlimit:10;"/><g clip-path="url(#_clipPath_1EPz48cYiCWMmaOt8vnyOnB0dOFMfl8r)"><text transform="matrix(0.997,-0.076,0.076,0.997,488.57,200.69)" style="font-family:'Quicksand';font-weight:700;font-size:24px;font-style:normal;fill:#000000;stroke:none;">AHA !</text></g><defs><clipPath id="_clipPath_1EPz48cYiCWMmaOt8vnyOnB0dOFMfl8r"><rect x="0" y="0" width="64" height="30" transform="matrix(0.997,-0.076,0.076,0.997,486.758,176.758)"/></clipPath></defs><path d=" M 502 333 Q 507.1 336.038 511 336.269 C 514.9 336.5 536.122 333.477 541 330 C 543.546 328.185 546.256 327.611 549 311.958 Q 551.212 299.336 551.205 289.96 L 565 293 Q 560.944 334.947 556 339 C 552.95 341.5 507.78 364.561 503 364 L 502 333 Z " fill="rgb(20,3,136)"/><path d=" M 72.22 325.109 C 64.211 333.323 23.524 324.906 18.54 324.906 C 13.516 324.906 8.771 317.977 8.771 311.958 C 8.771 305.939 15.246 301.694 15.246 289.96 C 15.246 278.227 11.897 273.816 23.62 260.511 C 35.343 247.206 23.62 240.87 39.251 223.129 Q 54.882 205.389 70.513 223.129 L 70.805 231.097 L 70.513 223.129 C 70.1 222.215 70.14 221.068 70.636 219.87 L 70.805 231.097 L 72.22 325.109 L 70.805 231.097 L 72.22 325.109 Z " fill="rgb(255,153,0)"/><path d=" M 70.656 326.357 C 78.449 333.744 113.162 321.402 117.514 320.916 C 121.901 320.425 125.371 313.07 124.786 307.084 C 121.009 300.826 114.947 297.242 116.99 285.838 C 116.556 274.127 119.064 269.426 106.813 257.365 C 95.281 245.277 104.902 237.831 89.526 221.712 Q 74.15 205.594 62.226 224.764 L 62.745 232.717 L 62.226 224.764 C 62.497 223.814 62.351 222.678 61.801 221.534 L 62.745 232.717 L 70.656 326.357 L 62.745 232.717 L 70.656 326.357 Z " fill="rgb(255,153,0)"/><g><path d="M 44.615 312.21 L 98.135 312.21 C 114.795 312.21 128.32 325.735 128.32 342.394 L 128.32 474.816 C 128.32 491.475 114.795 505 98.135 505 L 44.615 505 C 27.955 505 14.43 491.475 14.43 474.816 L 14.43 342.394 C 14.43 325.735 27.955 312.21 44.615 312.21 Z" style="stroke:none;fill:#140388;stroke-miterlimit:10;"/><path d=" M 89.218 312.13 C 89.224 312.351 89.226 312.573 89.226 312.795 C 89.226 326.959 80.651 338.459 70.089 338.459 C 59.527 338.459 50.952 326.959 50.952 312.795 C 50.952 312.573 50.954 312.351 50.961 312.13 L 89.218 312.13 L 89.218 312.13 Z " fill="rgb(234,218,208)"/></g><path d=" M -27.957 473.342 C -26.172 466.224 -20.162 461.751 -14.543 463.36 C -8.924 464.97 -5.811 472.056 -7.595 479.175 C -9.38 486.294 -15.39 490.767 -21.009 489.157 C -26.628 487.548 -29.741 480.461 -27.957 473.342 Z " fill="rgb(234,218,208)"/><path d=" M 168.976 468.858 C 167.192 461.739 161.181 457.266 155.562 458.875 C 149.944 460.485 146.83 467.571 148.615 474.69 C 150.399 481.809 156.41 486.282 162.028 484.672 C 167.647 483.063 170.76 475.976 168.976 468.858 Z " fill="rgb(234,218,208)"/><path d=" M -22.46 464.939 L -7.432 468.695 L 16.966 408.187 L 15.795 335.786 L -22.46 464.939 Z " fill="rgb(20,3,136)"/><path d=" M 164.277 462.699 L 149.248 466.455 L 124.85 405.946 L 126.021 333.545 L 164.277 462.699 Z " fill="rgb(20,3,136)"/><ellipse vector-effect="non-scaling-stroke" cx="70.64070094172212" cy="269.4875023852787" rx="29.86261296759423" ry="38.65221721650245" fill="rgb(234,218,208)"/><rect x="60.613" y="296.137" width="21.519" height="21.478" transform="matrix(1,0,0,1,0,0)" fill="rgb(234,218,208)"/><ellipse vector-effect="non-scaling-stroke" cx="183.49384569693834" cy="153.60130760612873" rx="22.500000000000057" ry="20.66103075601694" fill="rgb(191,200,200)"/><ellipse vector-effect="non-scaling-stroke" cx="207" cy="150.4701384250559" rx="21" ry="21.52986157494408" fill="rgb(191,200,200)"/><ellipse vector-effect="non-scaling-stroke" cx="214" cy="186.05972314988816" rx="22.47013842505592" ry="19.675961543488995" fill="rgb(191,200,200)"/><ellipse vector-effect="non-scaling-stroke" cx="165.5" cy="170.88484033083273" rx="20.5" ry="18.414701905776866" fill="rgb(191,200,200)"/><ellipse vector-effect="non-scaling-stroke" cx="184.49999999999991" cy="182.31295840341826" rx="22.5" ry="21.564562356506087" fill="rgb(191,200,200)"/><ellipse vector-effect="non-scaling-stroke" cx="233.00000000000003" cy="152.47013842505586" rx="22.00000000000003" ry="19.52986157494408" fill="rgb(191,200,200)"/><ellipse vector-effect="non-scaling-stroke" cx="242" cy="178.19683484011028" rx="20.500000000000014" ry="20.43876037996222" fill="rgb(191,200,200)"/><ellipse vector-effect="non-scaling-stroke" cx="253.5" cy="160.74839604691218" rx="17.5" ry="16.867842346688576" fill="rgb(191,200,200)"/><circle vector-effect="non-scaling-stroke" cx="159.9417234487132" cy="207.57562088168018" r="7.204068914244033" fill="rgb(191,200,200)"/><circle vector-effect="non-scaling-stroke" cx="124.78562349730964" cy="237.5045983116799" r="4.1707117205226325" fill="rgb(191,200,200)"/><circle vector-effect="non-scaling-stroke" cx="142.6191344934894" cy="222.50612126286774" r="5.492582724623048" fill="rgb(191,200,200)"/><path d=" M 403.354 275.612 Q 436.925 255.122 443.697 242.925 Q 450.468 230.727 456.517 232.172 L 435.659 220.972 Q 414.246 237.498 409.208 249.971 C 405.92 258.108 403.936 266.796 403.354 275.612 L 403.354 275.612 Z " fill="rgb(255,153,0)"/><path d=" M 52.966 260.502 C 52.966 258.35 54.615 256.602 56.646 256.602 C 58.677 256.602 60.326 258.35 60.326 260.502 C 60.326 262.655 58.677 264.402 56.646 264.402 C 54.615 264.402 52.966 262.655 52.966 260.502 Z " fill="rgb(87,87,87)"/><path d=" M 78.049 260.502 C 78.049 258.389 79.666 256.672 81.659 256.672 C 83.651 256.672 85.269 258.389 85.269 260.502 C 85.269 262.616 83.651 264.332 81.659 264.332 C 79.666 264.332 78.049 262.616 78.049 260.502 Z " fill="rgb(87,87,87)"/><path d=" M 73.732 273.988 C 73.552 276.228 72.022 277.988 70.172 277.988 C 68.322 277.988 66.782 276.238 66.602 273.988 L 73.732 273.988 Z " fill="rgb(217,164,133)"/><path d=" M 27 276.6 Q 60.571 256.11 67.343 243.913 Q 76.083 231.272 82.132 232.717 L 59.305 221.96 Q 37.892 238.486 32.854 250.959 C 29.566 259.096 27.582 267.784 27 276.6 L 27 276.6 Z " fill="rgb(255,153,0)"/><ellipse vector-effect="non-scaling-stroke" cx="70.16726435304435" cy="291.32770940621987" rx="3.7184797448265527" ry="4.339310510881887" fill="rgb(251,149,149)"/><g clip-path="url(#_clipPath_Pz5HBboouNBLunElTxKMdi72iQqq0MuS)"><text transform="matrix(1,0,0,1,185,177.384)" style="font-family:'Quicksand';font-weight:700;font-size:24px;font-style:normal;fill:#000000;stroke:none;">API?</text></g><defs><clipPath id="_clipPath_Pz5HBboouNBLunElTxKMdi72iQqq0MuS"><rect x="0" y="0" width="52" height="30" transform="matrix(1,0,0,1,182,150.384)"/></clipPath></defs></g></svg>