<svg xmlns="http://www.w3.org/2000/svg" width="376.45" height="245.842" viewBox="0 0 376.45 245.842">
  <g id="Group_1" data-name="Group 1" transform="translate(-475 -229.768)">
    <rect id="Rectangle_1" data-name="Rectangle 1" width="52" height="46" transform="translate(687.948 422.214)"/>
    <path id="Path_1" data-name="Path 1" d="M651.175,460.82h125.55a4.408,4.408,0,0,1,4.405,4.406V471.2a4.408,4.408,0,0,1-4.405,4.406H651.175a4.408,4.408,0,0,1-4.4-4.406v-5.978A4.408,4.408,0,0,1,651.175,460.82Z"/>
    <circle id="Ellipse_1" data-name="Ellipse 1" cx="3" cy="3" r="3" transform="translate(529.276 352)" fill="#e3caa9"/>
    <path id="Path_2" data-name="Path 2" d="M557.024,318.053c0-2.076.846,7.926-.791,7.966q-1.636.039,8.839,0-3.472-7.34-1.506-9.878C565.531,313.608,557.022,320.128,557.024,318.053Z" fill="#e3caa9"/>
    <path id="Path_3" data-name="Path 3" d="M543.387,367.443q-2.353,44.987.141,50.167c3.172,6.59,33.342-.23,32.92,1.11q.623-17.031,0-18.72c-.624-1.689-19.6,10.579-19.526,8s2.129-19.7,2.6-22.131,3.4-11.715,1.989-12.639Q560.1,372.305,543.387,367.443Z" fill="#242424"/>
    <path id="Path_4" data-name="Path 4" d="M581.7,254H846.2a5.252,5.252,0,0,1,5.25,5.25v164.5A5.252,5.252,0,0,1,846.2,429H581.7a5.252,5.252,0,0,1-5.25-5.25V259.25A5.252,5.252,0,0,1,581.7,254Z"/>
    <circle id="Ellipse_2" data-name="Ellipse 2" cx="2.5" cy="2.5" r="2.5" transform="translate(711.448 258)" fill="#ebebeb"/>
    <rect id="Rectangle_2" data-name="Rectangle 2" width="257" height="145" transform="translate(585.448 267)" fill="#fffcfc"/>
    <path id="Path_5" data-name="Path 5" d="M552.753,307.463c-.1,1.945-.4,6.492,0,7.955.453,1.657,3.587,5.347,8.967,2.652s6.825-11.447,5.978-14.143-13.849-7.247-14.945-3.535S552.852,305.518,552.753,307.463Z" fill="#dfc7a8"/>
    <path id="Path_6" data-name="Path 6" d="M550.735,317.3a3,3,0,1,1-3.632,2.192A3,3,0,0,1,550.735,317.3Z" fill="#dfc7a8"/>
    <path id="Path_7" data-name="Path 7" d="M556.922,338q-4.887,5.5-5.016,3.722t1.752-19.579l-6.3.5Q545.575,348.025,549,349q2.623.747,13.7-7.278" fill="#bc5757" stroke="#b05757" stroke-linecap="square" stroke-miterlimit="3" stroke-width="0.5"/>
    <ellipse id="Ellipse_3" data-name="Ellipse 3" cx="11.124" cy="10.777" rx="11.124" ry="10.777" transform="translate(482.907 231.854)" fill="#bfc8c8"/>
    <ellipse id="Ellipse_4" data-name="Ellipse 4" cx="10.382" cy="11.23" rx="10.382" ry="11.23" transform="translate(495.27 229.768)" fill="#bfc8c8"/>
    <ellipse id="Ellipse_5" data-name="Ellipse 5" cx="11.109" cy="10.263" rx="11.109" ry="10.263" transform="translate(498.004 249.299)" fill="#bfc8c8"/>
    <ellipse id="Ellipse_6" data-name="Ellipse 6" cx="10.135" cy="9.605" rx="10.135" ry="9.605" transform="translate(475 242.042)" fill="#bfc8c8"/>
    <ellipse id="Ellipse_7" data-name="Ellipse 7" cx="11.124" cy="11.248" rx="11.124" ry="11.248" transform="translate(483.404 246.36)" fill="#bfc8c8"/>
    <ellipse id="Ellipse_8" data-name="Ellipse 8" cx="10.877" cy="10.187" rx="10.877" ry="10.187" transform="translate(507.629 231.854)" fill="#bfc8c8"/>
    <ellipse id="Ellipse_9" data-name="Ellipse 9" cx="10.135" cy="10.661" rx="10.135" ry="10.661" transform="translate(512.821 244.8)" fill="#bfc8c8"/>
    <ellipse id="Ellipse_10" data-name="Ellipse 10" cx="8.652" cy="8.799" rx="8.652" ry="8.799" transform="translate(519.989 237.56)" fill="#bfc8c8"/>
    <ellipse id="Ellipse_11" data-name="Ellipse 11" cx="3.562" cy="3.758" rx="3.562" ry="3.758" transform="translate(527.728 268.856)" fill="#bfc8c8"/>
    <ellipse id="Ellipse_12" data-name="Ellipse 12" cx="2.062" cy="2.176" rx="2.062" ry="2.176" transform="translate(546.609 286.049)" fill="#bfc8c8"/>
    <ellipse id="Ellipse_13" data-name="Ellipse 13" cx="2.715" cy="2.865" rx="2.715" ry="2.865" transform="translate(537.138 277.537)" fill="#bfc8c8"/>
    <path id="Path_8" data-name="Path 8" d="M497.9,247.062l.382-.079-2.85,6.7h0a.8.8,0,0,1-.284.389h0a.692.692,0,0,1-.416.139h0a.659.659,0,0,1-.527-.2h0a.719.719,0,0,1-.172-.489h0a.863.863,0,0,1,.04-.25h0l3.286-7.892h0a.856.856,0,0,1,.323-.409h0a.7.7,0,0,1,.469-.119h0a.773.773,0,0,1,.442.139h0a.783.783,0,0,1,.3.389h0l3.246,7.733h0a.891.891,0,0,1,.066.317h0a.733.733,0,0,1-.231.568h0a.738.738,0,0,1-.508.211h0a.692.692,0,0,1-.429-.145h0a.955.955,0,0,1-.3-.4h0Zm2.481,5.015h-4.54l.726-1.518h3.563Zm3.748-7.166h3.009a2.292,2.292,0,0,1,1.286.4h0a2.954,2.954,0,0,1,.97,1.069h0a3.069,3.069,0,0,1,.37,1.5h0a3.043,3.043,0,0,1-.37,1.491h0a3.015,3.015,0,0,1-.97,1.076h0a2.268,2.268,0,0,1-1.286.4h-2.429l.132-.237v2.732h0a.819.819,0,0,1-.211.574h0a.715.715,0,0,1-.554.231h0a.7.7,0,0,1-.541-.231h0a.819.819,0,0,1-.211-.574h0v-7.628h0a.779.779,0,0,1,.231-.574h0a.779.779,0,0,1,.574-.231Zm.567,4.434h2.442a.734.734,0,0,0,.488-.211h0a1.663,1.663,0,0,0,.4-.548h0a1.639,1.639,0,0,0,.158-.706h0a1.629,1.629,0,0,0-.158-.713h0a1.615,1.615,0,0,0-.4-.534h0a.745.745,0,0,0-.488-.205h-2.455l.158-.237v3.365Zm8.235-3.629v7.628h0a.748.748,0,0,1-.251.574h0a.828.828,0,0,1-.58.231h0a.79.79,0,0,1-.594-.231h0a.792.792,0,0,1-.224-.574h0v-7.628h0a.769.769,0,0,1,.237-.574h0a.836.836,0,0,1,.607-.231h0a.792.792,0,0,1,.561.231h0a.758.758,0,0,1,.244.574Zm3.049,5.265v-1h0a.792.792,0,0,1,.224-.574h0a.757.757,0,0,1,.568-.231h0a2.734,2.734,0,0,0,.976-.165h0a1.439,1.439,0,0,0,.693-.534h0a1.681,1.681,0,0,0,.257-.977h0a1.448,1.448,0,0,0-.217-.791h0a1.527,1.527,0,0,0-.594-.541h0a1.8,1.8,0,0,0-.852-.2h0a1.811,1.811,0,0,0-.692.132h0a2.166,2.166,0,0,0-.588.356h0a1.3,1.3,0,0,1-.508.27h0a.666.666,0,0,1-.6-.138h0a.777.777,0,0,1-.343-.568h0a.751.751,0,0,1,.25-.607h0a3.386,3.386,0,0,1,1.116-.759h0a3.475,3.475,0,0,1,1.365-.27h0a3.272,3.272,0,0,1,1.644.416h0a3.219,3.219,0,0,1,1.167,1.115h0a2.929,2.929,0,0,1,.436,1.583h0a3.2,3.2,0,0,1-.2,1.168h0a2.5,2.5,0,0,1-.561.871h0a2.84,2.84,0,0,1-.844.581h0a4.143,4.143,0,0,1-1.05.31h0a.369.369,0,0,0-.046.027h0a.043.043,0,0,0-.02.039h0v.488h0a.793.793,0,0,1-.224.575h0a.758.758,0,0,1-.567.23h0a.759.759,0,0,1-.568-.23h0a.793.793,0,0,1-.224-.575Zm.9,3.168H516.7a.8.8,0,0,1-.588-.205h0a.794.794,0,0,1-.2-.587h0v-.224h0a.8.8,0,0,1,.2-.588h0a.8.8,0,0,1,.588-.2h.171a.8.8,0,0,1,.587.2h0a.8.8,0,0,1,.205.588h0v.224h0a.792.792,0,0,1-.205.587h0a.792.792,0,0,1-.587.205Z"/>
    <path id="Path_9" data-name="Path 9" d="M664.853,314.22H768.037a.433.433,0,0,1,.433.433v.134a.433.433,0,0,1-.433.433H664.853a.433.433,0,0,1-.433-.433v-.134A.433.433,0,0,1,664.853,314.22Z"/>
    <path id="Path_10" data-name="Path 10" d="M664.853,329.43H768.037a.433.433,0,0,1,.433.433V330a.433.433,0,0,1-.433.433H664.853a.433.433,0,0,1-.433-.433v-.134A.433.433,0,0,1,664.853,329.43Z"/>
    <path id="Path_11" data-name="Path 11" d="M664.853,336.86H768.037a.433.433,0,0,1,.433.433v.134a.433.433,0,0,1-.433.433H664.853a.433.433,0,0,1-.433-.433v-.134A.433.433,0,0,1,664.853,336.86Z"/>
    <circle id="Ellipse_14" data-name="Ellipse 14" cx="20" cy="20" r="20" transform="translate(609 351.211)" fill="#fffcfc"/>
    <circle id="Ellipse_15" data-name="Ellipse 15" cx="20" cy="20" r="20" transform="translate(609 351.211)" fill="#fffcfc" stroke="#000" stroke-linecap="square" stroke-miterlimit="3" stroke-width="2"/>
    <circle id="Ellipse_16" data-name="Ellipse 16" cx="15.278" cy="15.278" r="15.278" transform="translate(631.365 371.211)" fill="#05463a"/>
    <path id="Path_12" data-name="Path 12" d="M553.88,445.252q.976,4.745-3.168,5.671c-4.145.925-10.012,7.329-2.7,6.545q7.312-.783,17.445-1.219l-.821-11.748Z"/>
    <path id="Path_13" data-name="Path 13" d="M664.853,321.23H768.037a.433.433,0,0,1,.433.433v.134a.433.433,0,0,1-.433.433H664.853a.433.433,0,0,1-.433-.433v-.134A.433.433,0,0,1,664.853,321.23Z"/>
    <path id="Path_14" data-name="Path 14" d="M544.674,372.535q6.2,43.973,6.5,49.975c.295,6-1.638,25.453-1.858,26.843q20.327-.427,19.536-2.029c-.791-1.6-5.03-22.843-5.291-25.423s-1.754-30.613-1.625-33.092,1.657-12.114.235-12.853Q560.746,375.217,544.674,372.535Z" fill="#393939"/>
    <path id="Path_15" data-name="Path 15" d="M532,351l14.134-3a21.735,21.735,0,0,0,1.251-6.356c-.119-1.77-4.113-3.731-2.384-6.936q1.729-3.205,6.426-4.318a27.675,27.675,0,0,0,2.217-1.9q1.814-1.8,3.278-3.348h8.643q5.126,3.444,4.173,8.61c-.954,5.166-3.517,8.706-4.173,13.633s-.238,12.294,0,15.786,1.848,12.532,1.49,14.111q-30.339-.622-29.505-2.153L545,355l-10,2Z" fill="#bc5757"/>
    <path id="Path_16" data-name="Path 16" d="M553.366,303.682q4.718,4.906,8.784,6.187c4.066,1.282,1.375,3.781.884,5.549q-1.756,3.334-.614,5.942a10.225,10.225,0,0,1,.614,7.071c-.575,2.386-5.171,6.344-2.652,7.017s3.771-1.449,5.8-.83,7.815,3.359,7.462,0,4.994-5.7,1.767-15.91S575.138,307.238,574,303c-1.007-3.75-1.131-5.075-5-7.273a13.5,13.5,0,0,0-6.85-1.493,14.855,14.855,0,0,0-4.614.609c-2.8,1.063-3.588,1.149-4.635,3.536A4.635,4.635,0,0,0,553.366,303.682Z"/>
  </g>
</svg>
